%TF.GenerationSoftware,Altium Limited,Altium Designer,21.9.2 (33)*%
G04 Layer_Color=2752767*
%FSLAX45Y45*%
%MOMM*%
%TF.SameCoordinates,8C9FB855-A7A5-4AEE-82B0-D85B10D48A85*%
%TF.FilePolarity,Positive*%
%TF.FileFunction,Drawing*%
%TF.Part,Single*%
G01*
G75*
%TA.AperFunction,NonConductor*%
%ADD70C,0.12700*%
%ADD107C,0.16933*%
D70*
X16999001Y7788199D02*
Y7889799D01*
X17100601D01*
Y7788199D01*
X16999001D01*
Y8366201D02*
Y8467801D01*
X17100601D01*
Y8366201D01*
X16999001D01*
X15608299Y7461301D02*
X15557500Y7562901D01*
X15659100D01*
X15608299Y7461301D01*
Y7661300D02*
X15557500Y7762900D01*
X15659100D01*
X15608299Y7661300D01*
Y7861300D02*
X15557500Y7962900D01*
X15659100D01*
X15608299Y7861300D01*
Y8061300D02*
X15557500Y8162900D01*
X15659100D01*
X15608299Y8061300D01*
X12541301Y6845300D02*
X12490501Y6946900D01*
X12592101D01*
X12541301Y6845300D01*
X12741300D02*
X12690500Y6946900D01*
X12792100D01*
X12741300Y6845300D01*
X12941299D02*
X12890500Y6946900D01*
X12992101D01*
X12941299Y6845300D01*
X13141299D02*
X13090500Y6946900D01*
X13192101D01*
X13141299Y6845300D01*
X15697200Y10373147D02*
X15722600Y10398547D01*
X15748000D01*
X15722600Y10423947D01*
X15748000Y10449347D01*
X15722600D01*
X15697200Y10474747D01*
X15671800Y10449347D01*
X15646400D01*
X15671800Y10423947D01*
X15646400Y10398547D01*
X15671800D01*
X15697200Y10373147D01*
X16586302Y6527800D02*
X16535503Y6629400D01*
X16637102D01*
X16586302Y6527800D01*
X16786301D02*
X16735501Y6629400D01*
X16837102D01*
X16786301Y6527800D01*
X16986301D02*
X16935501Y6629400D01*
X17037102D01*
X16986301Y6527800D01*
X17186301D02*
X17135500Y6629400D01*
X17237100D01*
X17186301Y6527800D01*
X17386301D02*
X17335500Y6629400D01*
X17437100D01*
X17386301Y6527800D01*
X17586301D02*
X17535500Y6629400D01*
X17637100D01*
X17586301Y6527800D01*
X15519400Y6722298D02*
X15544800Y6773098D01*
X15519400Y6823898D01*
X15570200Y6798498D01*
X15621001Y6823898D01*
X15595599Y6773098D01*
X15621001Y6722298D01*
X15570200Y6747698D01*
X15519400Y6722298D01*
Y6972300D02*
X15544800Y7023100D01*
X15519400Y7073900D01*
X15570200Y7048500D01*
X15621001Y7073900D01*
X15595599Y7023100D01*
X15621001Y6972300D01*
X15570200Y6997700D01*
X15519400Y6972300D01*
X11861800Y10373147D02*
X11887200Y10398547D01*
X11912600D01*
X11887200Y10423947D01*
X11912600Y10449347D01*
X11887200D01*
X11861800Y10474747D01*
X11836400Y10449347D01*
X11811000D01*
X11836400Y10423947D01*
X11811000Y10398547D01*
X11836400D01*
X11861800Y10373147D01*
X13779500D02*
X13804900Y10398547D01*
X13830299D01*
X13804900Y10423947D01*
X13830299Y10449347D01*
X13804900D01*
X13779500Y10474747D01*
X13754100Y10449347D01*
X13728700D01*
X13754100Y10423947D01*
X13728700Y10398547D01*
X13754100D01*
X13779500Y10373147D01*
X16052800Y6527800D02*
X16002000Y6629400D01*
X16103600D01*
X16052800Y6527800D01*
X16252800D02*
X16202000Y6629400D01*
X16303600D01*
X16252800Y6527800D01*
X16573500Y8585200D02*
Y8559800D01*
X16624300D01*
Y8585200D01*
X16649699D01*
Y8636000D01*
X16624300D01*
Y8661400D01*
X16573500D01*
Y8636000D01*
X16548100D01*
Y8585200D01*
X16573500D01*
X16389407Y9003587D02*
Y8978187D01*
X16440208D01*
Y9003587D01*
X16465608D01*
Y9054387D01*
X16440208D01*
Y9079787D01*
X16389407D01*
Y9054387D01*
X16364008D01*
Y9003587D01*
X16389407D01*
X15938499Y9080500D02*
Y9055100D01*
X15989301D01*
Y9080500D01*
X16014700D01*
Y9131300D01*
X15989301D01*
Y9156700D01*
X15938499D01*
Y9131300D01*
X15913100D01*
Y9080500D01*
X15938499D01*
X16230600Y9220200D02*
Y9194800D01*
X16281400D01*
Y9220200D01*
X16306799D01*
Y9271000D01*
X16281400D01*
Y9296400D01*
X16230600D01*
Y9271000D01*
X16205200D01*
Y9220200D01*
X16230600D01*
X13309599Y9131300D02*
Y9105900D01*
X13360400D01*
Y9131300D01*
X13385800D01*
Y9182100D01*
X13360400D01*
Y9207500D01*
X13309599D01*
Y9182100D01*
X13284200D01*
Y9131300D01*
X13309599D01*
X12484100Y9753600D02*
Y9728200D01*
X12534900D01*
Y9753600D01*
X12560300D01*
Y9804400D01*
X12534900D01*
Y9829800D01*
X12484100D01*
Y9804400D01*
X12458700D01*
Y9753600D01*
X12484100D01*
X12026900Y7353300D02*
Y7327900D01*
X12077700D01*
Y7353300D01*
X12103100D01*
Y7404100D01*
X12077700D01*
Y7429500D01*
X12026900D01*
Y7404100D01*
X12001500D01*
Y7353300D01*
X12026900D01*
X11684000Y7226300D02*
Y7200900D01*
X11734800D01*
Y7226300D01*
X11760200D01*
Y7277100D01*
X11734800D01*
Y7302500D01*
X11684000D01*
Y7277100D01*
X11658600D01*
Y7226300D01*
X11684000D01*
X11836400Y10109200D02*
Y10083800D01*
X11887200D01*
Y10109200D01*
X11912600D01*
Y10160000D01*
X11887200D01*
Y10185400D01*
X11836400D01*
Y10160000D01*
X11811000D01*
Y10109200D01*
X11836400D01*
X14071600Y9829800D02*
Y9804400D01*
X14122400D01*
Y9829800D01*
X14147800D01*
Y9880600D01*
X14122400D01*
Y9906000D01*
X14071600D01*
Y9880600D01*
X14046201D01*
Y9829800D01*
X14071600D01*
X12364533Y9087955D02*
Y9062555D01*
X12415333D01*
Y9087955D01*
X12440733D01*
Y9138755D01*
X12415333D01*
Y9164155D01*
X12364533D01*
Y9138755D01*
X12339133D01*
Y9087955D01*
X12364533D01*
X16103600Y6883400D02*
X16128999D01*
X16154401Y6908800D01*
X16179800Y6883400D01*
X16205200D01*
Y6908800D01*
X16179800Y6934200D01*
X16205200Y6959600D01*
Y6985000D01*
X16179800D01*
X16154401Y6959600D01*
X16128999Y6985000D01*
X16103600D01*
Y6959600D01*
X16128999Y6934200D01*
X16103600Y6908800D01*
Y6883400D01*
X15748000Y9372600D02*
Y9347200D01*
X15798801D01*
Y9372600D01*
X15824200D01*
Y9423400D01*
X15798801D01*
Y9448800D01*
X15748000D01*
Y9423400D01*
X15722600D01*
Y9372600D01*
X15748000D01*
X13970000Y6959600D02*
Y6934200D01*
X14020799D01*
Y6959600D01*
X14046201D01*
Y7010400D01*
X14020799D01*
Y7035800D01*
X13970000D01*
Y7010400D01*
X13944600D01*
Y6959600D01*
X13970000D01*
X17043401Y7061200D02*
Y7035800D01*
X17094200D01*
Y7061200D01*
X17119600D01*
Y7112000D01*
X17094200D01*
Y7137400D01*
X17043401D01*
Y7112000D01*
X17017999D01*
Y7061200D01*
X17043401D01*
X12649200Y7658100D02*
Y7632700D01*
X12700000D01*
Y7658100D01*
X12725400D01*
Y7708900D01*
X12700000D01*
Y7734300D01*
X12649200D01*
Y7708900D01*
X12623800D01*
Y7658100D01*
X12649200D01*
X12903200Y10312400D02*
Y10287000D01*
X12953999D01*
Y10312400D01*
X12979401D01*
Y10363200D01*
X12953999D01*
Y10388600D01*
X12903200D01*
Y10363200D01*
X12877800D01*
Y10312400D01*
X12903200D01*
X14033501Y9423400D02*
Y9398000D01*
X14084300D01*
Y9423400D01*
X14109700D01*
Y9474200D01*
X14084300D01*
Y9499600D01*
X14033501D01*
Y9474200D01*
X14008099D01*
Y9423400D01*
X14033501D01*
X14528799D02*
Y9398000D01*
X14579601D01*
Y9423400D01*
X14605000D01*
Y9474200D01*
X14579601D01*
Y9499600D01*
X14528799D01*
Y9474200D01*
X14503400D01*
Y9423400D01*
X14528799D01*
X15735300Y9296400D02*
Y9271000D01*
X15786099D01*
Y9296400D01*
X15811501D01*
Y9347200D01*
X15786099D01*
Y9372600D01*
X15735300D01*
Y9347200D01*
X15709900D01*
Y9296400D01*
X15735300D01*
X15074899Y9321800D02*
Y9296400D01*
X15125700D01*
Y9321800D01*
X15151100D01*
Y9372600D01*
X15125700D01*
Y9398000D01*
X15074899D01*
Y9372600D01*
X15049500D01*
Y9321800D01*
X15074899D01*
X15113000Y8674100D02*
Y8648700D01*
X15163800D01*
Y8674100D01*
X15189200D01*
Y8724900D01*
X15163800D01*
Y8750300D01*
X15113000D01*
Y8724900D01*
X15087601D01*
Y8674100D01*
X15113000D01*
X15417799Y8128000D02*
Y8102600D01*
X15468600D01*
Y8128000D01*
X15494000D01*
Y8178800D01*
X15468600D01*
Y8204200D01*
X15417799D01*
Y8178800D01*
X15392400D01*
Y8128000D01*
X15417799D01*
X14528799Y7581900D02*
Y7556500D01*
X14579601D01*
Y7581900D01*
X14605000D01*
Y7632700D01*
X14579601D01*
Y7658100D01*
X14528799D01*
Y7632700D01*
X14503400D01*
Y7581900D01*
X14528799D01*
X14020799D02*
Y7556500D01*
X14071600D01*
Y7581900D01*
X14097000D01*
Y7632700D01*
X14071600D01*
Y7658100D01*
X14020799D01*
Y7632700D01*
X13995399D01*
Y7581900D01*
X14020799D01*
X13385800D02*
Y7556500D01*
X13436600D01*
Y7581900D01*
X13462000D01*
Y7632700D01*
X13436600D01*
Y7658100D01*
X13385800D01*
Y7632700D01*
X13360400D01*
Y7581900D01*
X13385800D01*
X13271500Y7874000D02*
Y7848600D01*
X13322301D01*
Y7874000D01*
X13347701D01*
Y7924800D01*
X13322301D01*
Y7950200D01*
X13271500D01*
Y7924800D01*
X13246100D01*
Y7874000D01*
X13271500D01*
Y8623300D02*
Y8597900D01*
X13322301D01*
Y8623300D01*
X13347701D01*
Y8674100D01*
X13322301D01*
Y8699500D01*
X13271500D01*
Y8674100D01*
X13246100D01*
Y8623300D01*
X13271500D01*
X14325600Y7289800D02*
Y7264400D01*
X14376401D01*
Y7289800D01*
X14401801D01*
Y7340600D01*
X14376401D01*
Y7366000D01*
X14325600D01*
Y7340600D01*
X14300200D01*
Y7289800D01*
X14325600D01*
X14744701D02*
Y7264400D01*
X14795500D01*
Y7289800D01*
X14820900D01*
Y7340600D01*
X14795500D01*
Y7366000D01*
X14744701D01*
Y7340600D01*
X14719299D01*
Y7289800D01*
X14744701D01*
X15214600Y7277100D02*
Y7251700D01*
X15265401D01*
Y7277100D01*
X15290800D01*
Y7327900D01*
X15265401D01*
Y7353300D01*
X15214600D01*
Y7327900D01*
X15189200D01*
Y7277100D01*
X15214600D01*
X15760699Y8521700D02*
Y8496300D01*
X15811501D01*
Y8521700D01*
X15836900D01*
Y8572500D01*
X15811501D01*
Y8597900D01*
X15760699D01*
Y8572500D01*
X15735300D01*
Y8521700D01*
X15760699D01*
Y8686800D02*
Y8661400D01*
X15811501D01*
Y8686800D01*
X15836900D01*
Y8737600D01*
X15811501D01*
Y8763000D01*
X15760699D01*
Y8737600D01*
X15735300D01*
Y8686800D01*
X15760699D01*
X12039600Y10223500D02*
Y10198100D01*
X12090400D01*
Y10223500D01*
X12115800D01*
Y10274300D01*
X12090400D01*
Y10299700D01*
X12039600D01*
Y10274300D01*
X12014200D01*
Y10223500D01*
X12039600D01*
X15341600Y7518400D02*
Y7493000D01*
X15392400D01*
Y7518400D01*
X15417799D01*
Y7569200D01*
X15392400D01*
Y7594600D01*
X15341600D01*
Y7569200D01*
X15316200D01*
Y7518400D01*
X15341600D01*
X15392400Y7581900D02*
Y7556500D01*
X15443201D01*
Y7581900D01*
X15468600D01*
Y7632700D01*
X15443201D01*
Y7658100D01*
X15392400D01*
Y7632700D01*
X15367000D01*
Y7581900D01*
X15392400D01*
X13576300Y9423400D02*
Y9398000D01*
X13627100D01*
Y9423400D01*
X13652499D01*
Y9474200D01*
X13627100D01*
Y9499600D01*
X13576300D01*
Y9474200D01*
X13550900D01*
Y9423400D01*
X13576300D01*
X13487399D02*
Y9398000D01*
X13538200D01*
Y9423400D01*
X13563600D01*
Y9474200D01*
X13538200D01*
Y9499600D01*
X13487399D01*
Y9474200D01*
X13462000D01*
Y9423400D01*
X13487399D01*
X16332201Y7556500D02*
Y7531100D01*
X16383000D01*
Y7556500D01*
X16408400D01*
Y7607300D01*
X16383000D01*
Y7632700D01*
X16332201D01*
Y7607300D01*
X16306799D01*
Y7556500D01*
X16332201D01*
X13284200Y8750300D02*
Y8724900D01*
X13335001D01*
Y8750300D01*
X13360400D01*
Y8801100D01*
X13335001D01*
Y8826500D01*
X13284200D01*
Y8801100D01*
X13258800D01*
Y8750300D01*
X13284200D01*
Y8826500D02*
Y8801100D01*
X13335001D01*
Y8826500D01*
X13360400D01*
Y8877300D01*
X13335001D01*
Y8902700D01*
X13284200D01*
Y8877300D01*
X13258800D01*
Y8826500D01*
X13284200D01*
X12331700Y6578600D02*
Y6553200D01*
X12382500D01*
Y6578600D01*
X12407900D01*
Y6629400D01*
X12382500D01*
Y6654800D01*
X12331700D01*
Y6629400D01*
X12306300D01*
Y6578600D01*
X12331700D01*
X13766800Y9423400D02*
Y9398000D01*
X13817599D01*
Y9423400D01*
X13842999D01*
Y9474200D01*
X13817599D01*
Y9499600D01*
X13766800D01*
Y9474200D01*
X13741400D01*
Y9423400D01*
X13766800D01*
X13665199D02*
Y9398000D01*
X13716000D01*
Y9423400D01*
X13741400D01*
Y9474200D01*
X13716000D01*
Y9499600D01*
X13665199D01*
Y9474200D01*
X13639799D01*
Y9423400D01*
X13665199D01*
X13436600Y8191500D02*
Y8166100D01*
X13487399D01*
Y8191500D01*
X13512801D01*
Y8242300D01*
X13487399D01*
Y8267700D01*
X13436600D01*
Y8242300D01*
X13411200D01*
Y8191500D01*
X13436600D01*
X13881100Y9423400D02*
Y9398000D01*
X13931900D01*
Y9423400D01*
X13957300D01*
Y9474200D01*
X13931900D01*
Y9499600D01*
X13881100D01*
Y9474200D01*
X13855701D01*
Y9423400D01*
X13881100D01*
X14859000D02*
Y9398000D01*
X14909801D01*
Y9423400D01*
X14935201D01*
Y9474200D01*
X14909801D01*
Y9499600D01*
X14859000D01*
Y9474200D01*
X14833600D01*
Y9423400D01*
X14859000D01*
X15138400Y9639300D02*
Y9613900D01*
X15189200D01*
Y9639300D01*
X15214600D01*
Y9690100D01*
X15189200D01*
Y9715500D01*
X15138400D01*
Y9690100D01*
X15113000D01*
Y9639300D01*
X15138400D01*
X15125700Y9220200D02*
Y9194800D01*
X15176500D01*
Y9220200D01*
X15201900D01*
Y9271000D01*
X15176500D01*
Y9296400D01*
X15125700D01*
Y9271000D01*
X15100301D01*
Y9220200D01*
X15125700D01*
X17360899Y6413500D02*
Y6388100D01*
X17411700D01*
Y6413500D01*
X17437100D01*
Y6464300D01*
X17411700D01*
Y6489700D01*
X17360899D01*
Y6464300D01*
X17335500D01*
Y6413500D01*
X17360899D01*
X14681200Y9931400D02*
Y9906000D01*
X14732001D01*
Y9931400D01*
X14757401D01*
Y9982200D01*
X14732001D01*
Y10007600D01*
X14681200D01*
Y9982200D01*
X14655800D01*
Y9931400D01*
X14681200D01*
X14389101D02*
Y9906000D01*
X14439900D01*
Y9931400D01*
X14465300D01*
Y9982200D01*
X14439900D01*
Y10007600D01*
X14389101D01*
Y9982200D01*
X14363699D01*
Y9931400D01*
X14389101D01*
X15773399Y10363200D02*
Y10337800D01*
X15824200D01*
Y10363200D01*
X15849600D01*
Y10414000D01*
X15824200D01*
Y10439400D01*
X15773399D01*
Y10414000D01*
X15748000D01*
Y10363200D01*
X15773399D01*
X15570200D02*
Y10337800D01*
X15621001D01*
Y10363200D01*
X15646400D01*
Y10414000D01*
X15621001D01*
Y10439400D01*
X15570200D01*
Y10414000D01*
X15544800D01*
Y10363200D01*
X15570200D01*
X15671800Y10096500D02*
Y10071100D01*
X15722600D01*
Y10096500D01*
X15748000D01*
Y10147300D01*
X15722600D01*
Y10172700D01*
X15671800D01*
Y10147300D01*
X15646400D01*
Y10096500D01*
X15671800D01*
X11938946Y10360474D02*
Y10335074D01*
X11989746D01*
Y10360474D01*
X12015146D01*
Y10411274D01*
X11989746D01*
Y10436674D01*
X11938946D01*
Y10411274D01*
X11913546D01*
Y10360474D01*
X11938946D01*
X11734800Y10363200D02*
Y10337800D01*
X11785600D01*
Y10363200D01*
X11811000D01*
Y10414000D01*
X11785600D01*
Y10439400D01*
X11734800D01*
Y10414000D01*
X11709400D01*
Y10363200D01*
X11734800D01*
X13855701Y10388600D02*
Y10363200D01*
X13906500D01*
Y10388600D01*
X13931900D01*
Y10439400D01*
X13906500D01*
Y10464800D01*
X13855701D01*
Y10439400D01*
X13830299D01*
Y10388600D01*
X13855701D01*
X13652499D02*
Y10363200D01*
X13703300D01*
Y10388600D01*
X13728700D01*
Y10439400D01*
X13703300D01*
Y10464800D01*
X13652499D01*
Y10439400D01*
X13627100D01*
Y10388600D01*
X13652499D01*
X13754100Y10274300D02*
Y10248900D01*
X13804900D01*
Y10274300D01*
X13830299D01*
Y10325100D01*
X13804900D01*
Y10350500D01*
X13754100D01*
Y10325100D01*
X13728700D01*
Y10274300D01*
X13754100D01*
X13614400Y10096500D02*
Y10071100D01*
X13665199D01*
Y10096500D01*
X13690601D01*
Y10147300D01*
X13665199D01*
Y10172700D01*
X13614400D01*
Y10147300D01*
X13589000D01*
Y10096500D01*
X13614400D01*
X13296899D02*
Y10071100D01*
X13347701D01*
Y10096500D01*
X13373100D01*
Y10147300D01*
X13347701D01*
Y10172700D01*
X13296899D01*
Y10147300D01*
X13271500D01*
Y10096500D01*
X13296899D01*
X13119099Y10312400D02*
Y10287000D01*
X13169901D01*
Y10312400D01*
X13195300D01*
Y10363200D01*
X13169901D01*
Y10388600D01*
X13119099D01*
Y10363200D01*
X13093700D01*
Y10312400D01*
X13119099D01*
X13614400Y7289800D02*
Y7264400D01*
X13665199D01*
Y7289800D01*
X13690601D01*
Y7340600D01*
X13665199D01*
Y7366000D01*
X13614400D01*
Y7340600D01*
X13589000D01*
Y7289800D01*
X13614400D01*
X15036800Y10172700D02*
Y10147300D01*
X15087601D01*
Y10172700D01*
X15113000D01*
Y10223500D01*
X15087601D01*
Y10248900D01*
X15036800D01*
Y10223500D01*
X15011400D01*
Y10172700D01*
X15036800D01*
X14312900Y10325100D02*
Y10299700D01*
X14363699D01*
Y10325100D01*
X14389101D01*
Y10375900D01*
X14363699D01*
Y10401300D01*
X14312900D01*
Y10375900D01*
X14287500D01*
Y10325100D01*
X14312900D01*
X14452600Y7289800D02*
Y7264400D01*
X14503400D01*
Y7289800D01*
X14528799D01*
Y7340600D01*
X14503400D01*
Y7366000D01*
X14452600D01*
Y7340600D01*
X14427200D01*
Y7289800D01*
X14452600D01*
X14439900Y10223500D02*
Y10198100D01*
X14490700D01*
Y10223500D01*
X14516100D01*
Y10274300D01*
X14490700D01*
Y10299700D01*
X14439900D01*
Y10274300D01*
X14414500D01*
Y10223500D01*
X14439900D01*
X12103100Y9105900D02*
Y9080500D01*
X12153900D01*
Y9105900D01*
X12179300D01*
Y9156700D01*
X12153900D01*
Y9182100D01*
X12103100D01*
Y9156700D01*
X12077700D01*
Y9105900D01*
X12103100D01*
X12903200Y9804400D02*
Y9779000D01*
X12953999D01*
Y9804400D01*
X12979401D01*
Y9855200D01*
X12953999D01*
Y9880600D01*
X12903200D01*
Y9855200D01*
X12877800D01*
Y9804400D01*
X12903200D01*
X15544800Y6616700D02*
Y6591300D01*
X15595599D01*
Y6616700D01*
X15621001D01*
Y6667500D01*
X15595599D01*
Y6692900D01*
X15544800D01*
Y6667500D01*
X15519400D01*
Y6616700D01*
X15544800D01*
X15151100Y10426700D02*
Y10401300D01*
X15201900D01*
Y10426700D01*
X15227299D01*
Y10477500D01*
X15201900D01*
Y10502900D01*
X15151100D01*
Y10477500D01*
X15125700D01*
Y10426700D01*
X15151100D01*
X13487399D02*
Y10401300D01*
X13538200D01*
Y10426700D01*
X13563600D01*
Y10477500D01*
X13538200D01*
Y10502900D01*
X13487399D01*
Y10477500D01*
X13462000D01*
Y10426700D01*
X13487399D01*
X12153900D02*
Y10401300D01*
X12204700D01*
Y10426700D01*
X12230100D01*
Y10477500D01*
X12204700D01*
Y10502900D01*
X12153900D01*
Y10477500D01*
X12128500D01*
Y10426700D01*
X12153900D01*
X16040100Y8712200D02*
Y8686800D01*
X16090900D01*
Y8712200D01*
X16116299D01*
Y8763000D01*
X16090900D01*
Y8788400D01*
X16040100D01*
Y8763000D01*
X16014700D01*
Y8712200D01*
X16040100D01*
X16230600Y9486900D02*
Y9461500D01*
X16281400D01*
Y9486900D01*
X16306799D01*
Y9537700D01*
X16281400D01*
Y9563100D01*
X16230600D01*
Y9537700D01*
X16205200D01*
Y9486900D01*
X16230600D01*
X11976100Y9601200D02*
Y9575800D01*
X12026900D01*
Y9601200D01*
X12052300D01*
Y9652000D01*
X12026900D01*
Y9677400D01*
X11976100D01*
Y9652000D01*
X11950700D01*
Y9601200D01*
X11976100D01*
X12636500Y8585200D02*
Y8559800D01*
X12687300D01*
Y8585200D01*
X12712700D01*
Y8636000D01*
X12687300D01*
Y8661400D01*
X12636500D01*
Y8636000D01*
X12611100D01*
Y8585200D01*
X12636500D01*
X12560300Y8763000D02*
Y8737600D01*
X12611100D01*
Y8763000D01*
X12636500D01*
Y8813800D01*
X12611100D01*
Y8839200D01*
X12560300D01*
Y8813800D01*
X12534900D01*
Y8763000D01*
X12560300D01*
X12623800Y8940800D02*
Y8915400D01*
X12674600D01*
Y8940800D01*
X12700000D01*
Y8991600D01*
X12674600D01*
Y9017000D01*
X12623800D01*
Y8991600D01*
X12598400D01*
Y8940800D01*
X12623800D01*
X11785600Y8534400D02*
Y8509000D01*
X11836400D01*
Y8534400D01*
X11861800D01*
Y8585200D01*
X11836400D01*
Y8610600D01*
X11785600D01*
Y8585200D01*
X11760200D01*
Y8534400D01*
X11785600D01*
Y8331200D02*
Y8305800D01*
X11836400D01*
Y8331200D01*
X11861800D01*
Y8382000D01*
X11836400D01*
Y8407400D01*
X11785600D01*
Y8382000D01*
X11760200D01*
Y8331200D01*
X11785600D01*
X12280900Y8432800D02*
Y8407400D01*
X12331700D01*
Y8432800D01*
X12357100D01*
Y8483600D01*
X12331700D01*
Y8509000D01*
X12280900D01*
Y8483600D01*
X12255500D01*
Y8432800D01*
X12280900D01*
X12496800Y8420100D02*
Y8394700D01*
X12547600D01*
Y8420100D01*
X12573000D01*
Y8470900D01*
X12547600D01*
Y8496300D01*
X12496800D01*
Y8470900D01*
X12471400D01*
Y8420100D01*
X12496800D01*
X12649200Y8102600D02*
Y8077200D01*
X12700000D01*
Y8102600D01*
X12725400D01*
Y8153400D01*
X12700000D01*
Y8178800D01*
X12649200D01*
Y8153400D01*
X12623800D01*
Y8102600D01*
X12649200D01*
Y7861300D02*
Y7835900D01*
X12700000D01*
Y7861300D01*
X12725400D01*
Y7912100D01*
X12700000D01*
Y7937500D01*
X12649200D01*
Y7912100D01*
X12623800D01*
Y7861300D01*
X12649200D01*
X11747500Y7620000D02*
Y7594600D01*
X11798300D01*
Y7620000D01*
X11823700D01*
Y7670800D01*
X11798300D01*
Y7696200D01*
X11747500D01*
Y7670800D01*
X11722100D01*
Y7620000D01*
X11747500D01*
X12534900D02*
Y7594600D01*
X12585700D01*
Y7620000D01*
X12611100D01*
Y7670800D01*
X12585700D01*
Y7696200D01*
X12534900D01*
Y7670800D01*
X12509500D01*
Y7620000D01*
X12534900D01*
X12344400Y7315200D02*
Y7289800D01*
X12395200D01*
Y7315200D01*
X12420600D01*
Y7366000D01*
X12395200D01*
Y7391400D01*
X12344400D01*
Y7366000D01*
X12319000D01*
Y7315200D01*
X12344400D01*
X15049500Y6946900D02*
Y6921500D01*
X15100301D01*
Y6946900D01*
X15125700D01*
Y6997700D01*
X15100301D01*
Y7023100D01*
X15049500D01*
Y6997700D01*
X15024100D01*
Y6946900D01*
X15049500D01*
X14846300D02*
Y6921500D01*
X14897099D01*
Y6946900D01*
X14922501D01*
Y6997700D01*
X14897099D01*
Y7023100D01*
X14846300D01*
Y6997700D01*
X14820900D01*
Y6946900D01*
X14846300D01*
X14643100D02*
Y6921500D01*
X14693900D01*
Y6946900D01*
X14719299D01*
Y6997700D01*
X14693900D01*
Y7023100D01*
X14643100D01*
Y6997700D01*
X14617700D01*
Y6946900D01*
X14643100D01*
X14452600D02*
Y6921500D01*
X14503400D01*
Y6946900D01*
X14528799D01*
Y6997700D01*
X14503400D01*
Y7023100D01*
X14452600D01*
Y6997700D01*
X14427200D01*
Y6946900D01*
X14452600D01*
X14236700Y7073900D02*
Y7048500D01*
X14287500D01*
Y7073900D01*
X14312900D01*
Y7124700D01*
X14287500D01*
Y7150100D01*
X14236700D01*
Y7124700D01*
X14211301D01*
Y7073900D01*
X14236700D01*
X13792200D02*
Y7048500D01*
X13842999D01*
Y7073900D01*
X13868401D01*
Y7124700D01*
X13842999D01*
Y7150100D01*
X13792200D01*
Y7124700D01*
X13766800D01*
Y7073900D01*
X13792200D01*
X13576300Y6946900D02*
Y6921500D01*
X13627100D01*
Y6946900D01*
X13652499D01*
Y6997700D01*
X13627100D01*
Y7023100D01*
X13576300D01*
Y6997700D01*
X13550900D01*
Y6946900D01*
X13576300D01*
X13385800D02*
Y6921500D01*
X13436600D01*
Y6946900D01*
X13462000D01*
Y6997700D01*
X13436600D01*
Y7023100D01*
X13385800D01*
Y6997700D01*
X13360400D01*
Y6946900D01*
X13385800D01*
X12077700Y6908800D02*
Y6883400D01*
X12128500D01*
Y6908800D01*
X12153900D01*
Y6959600D01*
X12128500D01*
Y6985000D01*
X12077700D01*
Y6959600D01*
X12052300D01*
Y6908800D01*
X12077700D01*
X11722100Y7073900D02*
Y7048500D01*
X11772900D01*
Y7073900D01*
X11798300D01*
Y7124700D01*
X11772900D01*
Y7150100D01*
X11722100D01*
Y7124700D01*
X11696700D01*
Y7073900D01*
X11722100D01*
Y6997700D02*
Y6972300D01*
X11772900D01*
Y6997700D01*
X11798300D01*
Y7048500D01*
X11772900D01*
Y7073900D01*
X11722100D01*
Y7048500D01*
X11696700D01*
Y6997700D01*
X11722100D01*
X13779500Y6667500D02*
Y6642100D01*
X13830299D01*
Y6667500D01*
X13855701D01*
Y6718300D01*
X13830299D01*
Y6743700D01*
X13779500D01*
Y6718300D01*
X13754100D01*
Y6667500D01*
X13779500D01*
X12979401Y6680200D02*
Y6654800D01*
X13030200D01*
Y6680200D01*
X13055600D01*
Y6731000D01*
X13030200D01*
Y6756400D01*
X12979401D01*
Y6731000D01*
X12953999D01*
Y6680200D01*
X12979401D01*
X12484100Y6997700D02*
Y6972300D01*
X12534900D01*
Y6997700D01*
X12560300D01*
Y7048500D01*
X12534900D01*
Y7073900D01*
X12484100D01*
Y7048500D01*
X12458700D01*
Y6997700D01*
X12484100D01*
X14490700Y6667500D02*
Y6642100D01*
X14541499D01*
Y6667500D01*
X14566901D01*
Y6718300D01*
X14541499D01*
Y6743700D01*
X14490700D01*
Y6718300D01*
X14465300D01*
Y6667500D01*
X14490700D01*
X12166600Y7112000D02*
Y7086600D01*
X12217400D01*
Y7112000D01*
X12242800D01*
Y7162800D01*
X12217400D01*
Y7188200D01*
X12166600D01*
Y7162800D01*
X12141200D01*
Y7112000D01*
X12166600D01*
Y7188200D02*
Y7162800D01*
X12217400D01*
Y7188200D01*
X12242800D01*
Y7239000D01*
X12217400D01*
Y7264400D01*
X12166600D01*
Y7239000D01*
X12141200D01*
Y7188200D01*
X12166600D01*
X11899900Y6451600D02*
Y6426200D01*
X11950700D01*
Y6451600D01*
X11976100D01*
Y6502400D01*
X11950700D01*
Y6527800D01*
X11899900D01*
Y6502400D01*
X11874500D01*
Y6451600D01*
X11899900D01*
X11963400Y6502400D02*
Y6477000D01*
X12014200D01*
Y6502400D01*
X12039600D01*
Y6553200D01*
X12014200D01*
Y6578600D01*
X11963400D01*
Y6553200D01*
X11938000D01*
Y6502400D01*
X11963400D01*
X11811000Y6451600D02*
Y6426200D01*
X11861800D01*
Y6451600D01*
X11887200D01*
Y6502400D01*
X11861800D01*
Y6527800D01*
X11811000D01*
Y6502400D01*
X11785600D01*
Y6451600D01*
X11811000D01*
X12547600Y6565900D02*
Y6540500D01*
X12598400D01*
Y6565900D01*
X12623800D01*
Y6616700D01*
X12598400D01*
Y6642100D01*
X12547600D01*
Y6616700D01*
X12522200D01*
Y6565900D01*
X12547600D01*
X12026900Y6654800D02*
Y6629400D01*
X12077700D01*
Y6654800D01*
X12103100D01*
Y6705600D01*
X12077700D01*
Y6731000D01*
X12026900D01*
Y6705600D01*
X12001500D01*
Y6654800D01*
X12026900D01*
X15951199Y7239000D02*
Y7213600D01*
X16002000D01*
Y7239000D01*
X16027400D01*
Y7289800D01*
X16002000D01*
Y7315200D01*
X15951199D01*
Y7289800D01*
X15925800D01*
Y7239000D01*
X15951199D01*
Y7429500D02*
Y7404100D01*
X16002000D01*
Y7429500D01*
X16027400D01*
Y7480300D01*
X16002000D01*
Y7505700D01*
X15951199D01*
Y7480300D01*
X15925800D01*
Y7429500D01*
X15951199D01*
Y7594600D02*
Y7569200D01*
X16002000D01*
Y7594600D01*
X16027400D01*
Y7645400D01*
X16002000D01*
Y7670800D01*
X15951199D01*
Y7645400D01*
X15925800D01*
Y7594600D01*
X15951199D01*
X16828967Y7710368D02*
Y7684968D01*
X16879768D01*
Y7710368D01*
X16905168D01*
Y7761168D01*
X16879768D01*
Y7786568D01*
X16828967D01*
Y7761168D01*
X16803568D01*
Y7710368D01*
X16828967D01*
X16814799Y8483600D02*
Y8458200D01*
X16865601D01*
Y8483600D01*
X16891000D01*
Y8534400D01*
X16865601D01*
Y8559800D01*
X16814799D01*
Y8534400D01*
X16789400D01*
Y8483600D01*
X16814799D01*
X16217900Y9334500D02*
Y9309100D01*
X16268700D01*
Y9334500D01*
X16294099D01*
Y9385300D01*
X16268700D01*
Y9410700D01*
X16217900D01*
Y9385300D01*
X16192500D01*
Y9334500D01*
X16217900D01*
X16789400Y8102600D02*
Y8077200D01*
X16840199D01*
Y8102600D01*
X16865601D01*
Y8153400D01*
X16840199D01*
Y8178800D01*
X16789400D01*
Y8153400D01*
X16764000D01*
Y8102600D01*
X16789400D01*
Y8178800D02*
Y8153400D01*
X16840199D01*
Y8178800D01*
X16865601D01*
Y8229600D01*
X16840199D01*
Y8255000D01*
X16789400D01*
Y8229600D01*
X16764000D01*
Y8178800D01*
X16789400D01*
X15557500Y9080500D02*
Y9055100D01*
X15608299D01*
Y9080500D01*
X15633701D01*
Y9131300D01*
X15608299D01*
Y9156700D01*
X15557500D01*
Y9131300D01*
X15532100D01*
Y9080500D01*
X15557500D01*
X15468600D02*
Y9055100D01*
X15519400D01*
Y9080500D01*
X15544800D01*
Y9131300D01*
X15519400D01*
Y9156700D01*
X15468600D01*
Y9131300D01*
X15443201D01*
Y9080500D01*
X15468600D01*
X15963901Y9664700D02*
Y9639300D01*
X16014700D01*
Y9664700D01*
X16040100D01*
Y9715500D01*
X16014700D01*
Y9740900D01*
X15963901D01*
Y9715500D01*
X15938499D01*
Y9664700D01*
X15963901D01*
D107*
X17311299Y9363304D02*
G03*
X17311299Y9363304I-50800J0D01*
G01*
Y10023302D02*
G03*
X17311299Y10023302I-50800J0D01*
G01*
%TF.MD5,049bb0603e4c4a00d4bec9bc36c32fd1*%
M02*
