%TF.GenerationSoftware,Altium Limited,Altium Designer,21.9.2 (33)*%
G04 Layer_Color=255*
%FSLAX45Y45*%
%MOMM*%
%TF.SameCoordinates,8C9FB855-A7A5-4AEE-82B0-D85B10D48A85*%
%TF.FilePolarity,Positive*%
%TF.FileFunction,Pads,Top*%
%TF.Part,Single*%
G01*
G75*
%TA.AperFunction,SMDPad,CuDef*%
%ADD11R,1.50000X1.20000*%
%TA.AperFunction,ConnectorPad*%
%ADD12R,1.15000X0.30000*%
%ADD13R,2.00000X2.18000*%
%ADD14R,1.40000X0.62000*%
%ADD15R,2.40000X1.10000*%
%TA.AperFunction,SMDPad,CuDef*%
%ADD16R,0.90000X1.40000*%
%ADD17R,1.10000X1.35000*%
%ADD18R,1.45000X0.75000*%
%ADD19R,0.25000X0.25000*%
%ADD20C,0.72300*%
%ADD21C,0.56200*%
%ADD22C,0.61200*%
G04:AMPARAMS|DCode=23|XSize=0.31247mm|YSize=1.95524mm|CornerRadius=0.15624mm|HoleSize=0mm|Usage=FLASHONLY|Rotation=0.000|XOffset=0mm|YOffset=0mm|HoleType=Round|Shape=RoundedRectangle|*
%AMROUNDEDRECTD23*
21,1,0.31247,1.64277,0,0,0.0*
21,1,0.00000,1.95524,0,0,0.0*
1,1,0.31247,0.00000,-0.82138*
1,1,0.31247,0.00000,-0.82138*
1,1,0.31247,0.00000,0.82138*
1,1,0.31247,0.00000,0.82138*
%
%ADD23ROUNDEDRECTD23*%
G04:AMPARAMS|DCode=24|XSize=1.95524mm|YSize=0.31247mm|CornerRadius=0.15624mm|HoleSize=0mm|Usage=FLASHONLY|Rotation=0.000|XOffset=0mm|YOffset=0mm|HoleType=Round|Shape=RoundedRectangle|*
%AMROUNDEDRECTD24*
21,1,1.95524,0.00000,0,0,0.0*
21,1,1.64277,0.31247,0,0,0.0*
1,1,0.31247,0.82138,0.00000*
1,1,0.31247,-0.82138,0.00000*
1,1,0.31247,-0.82138,0.00000*
1,1,0.31247,0.82138,0.00000*
%
%ADD24ROUNDEDRECTD24*%
%ADD25R,1.95524X0.31247*%
%ADD26R,1.35000X1.10000*%
%ADD27R,6.35000X5.55000*%
%ADD28R,1.75000X1.00000*%
%ADD29R,1.20000X1.50000*%
%ADD30R,1.55000X1.30000*%
%ADD31R,1.45000X1.05000*%
%ADD32R,1.45490X1.55620*%
%ADD33R,1.20000X1.40000*%
%ADD34R,2.45000X1.70000*%
%ADD35R,0.30000X0.85000*%
%ADD36R,1.40000X0.90000*%
%ADD37R,1.40000X2.20000*%
%ADD38R,1.47500X0.45000*%
%TA.AperFunction,ComponentPad*%
%ADD41C,0.32500*%
%ADD42C,0.47500*%
%ADD43R,1.35000X1.35000*%
%ADD44C,1.35000*%
%ADD45R,1.35000X1.35000*%
%ADD46C,1.27500*%
%ADD47R,1.27500X1.27500*%
D11*
X17627600Y8871400D02*
D03*
Y8661400D02*
D03*
X15913100Y8982300D02*
D03*
Y8772300D02*
D03*
X13817599Y7000804D02*
D03*
Y7210801D02*
D03*
X14262100D02*
D03*
Y7000804D02*
D03*
X12395200Y10232796D02*
D03*
Y10442793D02*
D03*
X15392400Y10455499D02*
D03*
Y10245496D02*
D03*
X14097000Y10245500D02*
D03*
Y10455497D02*
D03*
X13093700Y10232796D02*
D03*
Y10442799D02*
D03*
X12623800D02*
D03*
Y10232796D02*
D03*
X12217400Y6835999D02*
D03*
Y6625996D02*
D03*
X14592300Y10245501D02*
D03*
Y10455504D02*
D03*
X14338300Y10245496D02*
D03*
Y10455499D02*
D03*
X12852400Y10232796D02*
D03*
Y10442793D02*
D03*
X13322301Y10442799D02*
D03*
Y10232796D02*
D03*
D12*
X16942297Y7792999D02*
D03*
Y7872999D02*
D03*
Y8003002D02*
D03*
Y8103001D02*
D03*
Y8152999D02*
D03*
Y8252998D02*
D03*
Y8383001D02*
D03*
Y8463001D02*
D03*
Y8432998D02*
D03*
Y8352998D02*
D03*
Y8303001D02*
D03*
Y8203001D02*
D03*
Y8052999D02*
D03*
Y7952999D02*
D03*
Y7903002D02*
D03*
Y7823002D02*
D03*
D13*
X17392802Y7616998D02*
D03*
Y8639002D02*
D03*
X16999799Y7616998D02*
D03*
Y8639002D02*
D03*
D14*
X16118500Y9913300D02*
D03*
Y9803303D02*
D03*
Y9693300D02*
D03*
Y9583303D02*
D03*
Y9473301D02*
D03*
Y9363304D02*
D03*
Y9253301D02*
D03*
Y9143304D02*
D03*
Y9033302D02*
D03*
D15*
X16318500Y8895304D02*
D03*
X17218497D02*
D03*
Y10510302D02*
D03*
X16318500D02*
D03*
D16*
X13315701Y6591300D02*
D03*
X13505704D02*
D03*
X14122400Y6578600D02*
D03*
X14312402D02*
D03*
X14935201D02*
D03*
X15125201D02*
D03*
X16491199Y8102600D02*
D03*
X16681201D02*
D03*
D17*
X12909702Y8566302D02*
D03*
X12769703D02*
D03*
X11957202Y7264400D02*
D03*
X11817203D02*
D03*
X11995302Y7086600D02*
D03*
X11855298D02*
D03*
X13036398Y9836302D02*
D03*
X13176398D02*
D03*
X14268303D02*
D03*
X14408302D02*
D03*
X14560403D02*
D03*
X14700401D02*
D03*
X15678302Y8559800D02*
D03*
X15538303D02*
D03*
X15652902Y9328302D02*
D03*
X15512903D02*
D03*
X15652902Y9506102D02*
D03*
X15512903D02*
D03*
X15678302Y8756802D02*
D03*
X15538303D02*
D03*
X12922401Y8134502D02*
D03*
X12782403D02*
D03*
X12922401Y7931302D02*
D03*
X12782403D02*
D03*
X11918798Y8350397D02*
D03*
X12058797D02*
D03*
X12769698Y7715402D02*
D03*
X12909697D02*
D03*
X12769698Y7512202D02*
D03*
X12909697D02*
D03*
X12058797Y8553602D02*
D03*
X11918798D02*
D03*
X12769703Y8972702D02*
D03*
X12909702D02*
D03*
X16224402Y7454900D02*
D03*
X16084402D02*
D03*
X16084398Y7632700D02*
D03*
X16224402D02*
D03*
Y7277100D02*
D03*
X16084398D02*
D03*
D18*
X12192000Y7060499D02*
D03*
Y7290501D02*
D03*
D19*
X15650200Y10424500D02*
D03*
X11814800D02*
D03*
X13732504D02*
D03*
D20*
X15600600Y10213650D02*
D03*
X15793800D02*
D03*
X11958401D02*
D03*
X11765199D02*
D03*
X13876102D02*
D03*
X13682904D02*
D03*
D21*
X15595702Y10487350D02*
D03*
X15798698D02*
D03*
X11963298D02*
D03*
X11760297D02*
D03*
X13881003D02*
D03*
X13678001D02*
D03*
D22*
X15697200Y10213650D02*
D03*
X11861800D02*
D03*
X13779500D02*
D03*
D23*
X13349001Y9595749D02*
D03*
X13398997D02*
D03*
X13449001D02*
D03*
X13498997D02*
D03*
X13549001D02*
D03*
X13599004D02*
D03*
X13649001D02*
D03*
X13699002D02*
D03*
X13749001D02*
D03*
X13799002D02*
D03*
X13848999D02*
D03*
X13899002D02*
D03*
X13948999D02*
D03*
X13999002D02*
D03*
X14048999D02*
D03*
X14099002D02*
D03*
X14148999D02*
D03*
X14199001D02*
D03*
X14248999D02*
D03*
X14299001D02*
D03*
X14348997D02*
D03*
X14399001D02*
D03*
X14448997D02*
D03*
X14499001D02*
D03*
X14548997D02*
D03*
X14599001D02*
D03*
X14648997D02*
D03*
X14699001D02*
D03*
X14748997D02*
D03*
X14799001D02*
D03*
X14849004D02*
D03*
X14899001D02*
D03*
X14949002D02*
D03*
X14999001D02*
D03*
X15049002D02*
D03*
X15099001D02*
D03*
Y7460656D02*
D03*
X15049002D02*
D03*
X14999001D02*
D03*
X14949002D02*
D03*
X14899001D02*
D03*
X14849004D02*
D03*
X14799001D02*
D03*
X14748997D02*
D03*
X14699001D02*
D03*
X14648997D02*
D03*
X14599001D02*
D03*
X14548997D02*
D03*
X14499001D02*
D03*
X14448997D02*
D03*
X14399001D02*
D03*
X14348997D02*
D03*
X14299001D02*
D03*
X14248999D02*
D03*
X14199001D02*
D03*
X14148999D02*
D03*
X14099002D02*
D03*
X14048999D02*
D03*
X13999002D02*
D03*
X13948999D02*
D03*
X13899002D02*
D03*
X13848999D02*
D03*
X13799002D02*
D03*
X13749001D02*
D03*
X13699002D02*
D03*
X13649001D02*
D03*
X13599004D02*
D03*
X13549001D02*
D03*
X13498997D02*
D03*
X13449001D02*
D03*
X13398997D02*
D03*
X13349001D02*
D03*
D24*
X15291547Y9403202D02*
D03*
Y9353205D02*
D03*
Y9303202D02*
D03*
Y9253205D02*
D03*
Y9203202D02*
D03*
Y9153205D02*
D03*
Y9103203D02*
D03*
Y9053200D02*
D03*
Y9003203D02*
D03*
Y8953200D02*
D03*
Y8903203D02*
D03*
Y8853200D02*
D03*
Y8803203D02*
D03*
Y8753201D02*
D03*
Y8703203D02*
D03*
Y8653201D02*
D03*
Y8603204D02*
D03*
Y8553201D02*
D03*
Y8503204D02*
D03*
Y8453201D02*
D03*
Y8403204D02*
D03*
Y8353201D02*
D03*
Y8303204D02*
D03*
Y8253202D02*
D03*
Y8203204D02*
D03*
Y8153202D02*
D03*
Y8103205D02*
D03*
Y8053202D02*
D03*
Y8003205D02*
D03*
Y7953202D02*
D03*
Y7903205D02*
D03*
Y7853202D02*
D03*
Y7803200D02*
D03*
Y7753203D02*
D03*
Y7703200D02*
D03*
Y7653203D02*
D03*
X13156453D02*
D03*
Y7703200D02*
D03*
Y7753203D02*
D03*
Y7803200D02*
D03*
Y7853202D02*
D03*
Y7903205D02*
D03*
Y7953202D02*
D03*
Y8003205D02*
D03*
Y8053202D02*
D03*
Y8103205D02*
D03*
Y8153202D02*
D03*
Y8203204D02*
D03*
Y8253202D02*
D03*
Y8303204D02*
D03*
Y8353201D02*
D03*
Y8403204D02*
D03*
Y8453201D02*
D03*
Y8503204D02*
D03*
Y8553201D02*
D03*
Y8603204D02*
D03*
Y8653201D02*
D03*
Y8703203D02*
D03*
Y8753201D02*
D03*
Y8803203D02*
D03*
Y8853200D02*
D03*
Y8903203D02*
D03*
Y8953200D02*
D03*
Y9003203D02*
D03*
Y9053200D02*
D03*
Y9103203D02*
D03*
Y9153205D02*
D03*
Y9203202D02*
D03*
Y9253205D02*
D03*
Y9303202D02*
D03*
Y9353205D02*
D03*
D25*
Y9403202D02*
D03*
D26*
X12179300Y10204303D02*
D03*
Y10344302D02*
D03*
X15074899Y7213905D02*
D03*
Y7073905D02*
D03*
X14668500Y7213900D02*
D03*
Y7073900D02*
D03*
X14871700D02*
D03*
Y7213900D02*
D03*
X14478000Y7073900D02*
D03*
Y7213900D02*
D03*
X14033501Y7226605D02*
D03*
Y7086605D02*
D03*
X13411200Y7213905D02*
D03*
Y7073905D02*
D03*
X13601700Y7213905D02*
D03*
Y7073900D02*
D03*
X12484100Y7340900D02*
D03*
Y7200900D02*
D03*
X15176500Y10344302D02*
D03*
Y10204298D02*
D03*
X13512801Y10344302D02*
D03*
Y10204303D02*
D03*
D27*
X17399001Y7086600D02*
D03*
D28*
X16688998Y6858102D02*
D03*
Y7315098D02*
D03*
D29*
X13916000Y6578600D02*
D03*
X13706003D02*
D03*
X13106598Y6591300D02*
D03*
X12896600D02*
D03*
X14728799Y6578600D02*
D03*
X14518803D02*
D03*
X13788802Y9861702D02*
D03*
X13998804D02*
D03*
X13357001D02*
D03*
X13566998D02*
D03*
X12906599Y8794902D02*
D03*
X12696596D02*
D03*
X12468001Y6591300D02*
D03*
X12678004D02*
D03*
X16703899Y7848600D02*
D03*
X16493901D02*
D03*
X16268700Y8610600D02*
D03*
X16058704D02*
D03*
Y7861300D02*
D03*
X16268700D02*
D03*
X16058704Y8115300D02*
D03*
X16268700D02*
D03*
X16058704Y8356600D02*
D03*
X16268700D02*
D03*
X16493901Y8610600D02*
D03*
X16703905D02*
D03*
Y8356600D02*
D03*
X16493901D02*
D03*
D30*
X11769100Y7991201D02*
D03*
X12564100D02*
D03*
X11769100Y7541199D02*
D03*
X12564100D02*
D03*
D31*
X12528103Y8359506D02*
D03*
X12313102D02*
D03*
Y8544504D02*
D03*
X12528103D02*
D03*
D32*
X12696337Y7283602D02*
D03*
X12881464D02*
D03*
D33*
X12391202Y9224300D02*
D03*
X12141200D02*
D03*
X11891198D02*
D03*
X12391202Y8784300D02*
D03*
X12141200D02*
D03*
X11891198D02*
D03*
D34*
X11874500Y6756400D02*
D03*
D35*
X11974500Y6606398D02*
D03*
X11924502D02*
D03*
X11874500D02*
D03*
X11824503D02*
D03*
X11774500D02*
D03*
Y6906402D02*
D03*
X11824503D02*
D03*
X11874500D02*
D03*
X11924502D02*
D03*
X11974500D02*
D03*
D36*
X16484599Y7569200D02*
D03*
Y6796898D02*
D03*
D37*
Y7314199D02*
D03*
Y7051899D02*
D03*
D38*
X12371502Y9821601D02*
D03*
Y9756602D02*
D03*
Y9691599D02*
D03*
Y9626600D02*
D03*
Y9561601D02*
D03*
Y9496598D02*
D03*
Y9431599D02*
D03*
X11783898D02*
D03*
Y9496598D02*
D03*
Y9561601D02*
D03*
Y9626600D02*
D03*
Y9691599D02*
D03*
Y9756602D02*
D03*
Y9821601D02*
D03*
D41*
X17049802Y7838999D02*
D03*
Y8417001D02*
D03*
D42*
X17260500Y9363304D02*
D03*
Y10023302D02*
D03*
D43*
X15608299Y7512101D02*
D03*
D44*
Y7712100D02*
D03*
Y7912100D02*
D03*
Y8112100D02*
D03*
X12741300Y6896100D02*
D03*
X12941299D02*
D03*
X13141299D02*
D03*
X16786301Y6578600D02*
D03*
X16986301D02*
D03*
X17186301D02*
D03*
X17386301D02*
D03*
X17586301D02*
D03*
X16252800D02*
D03*
D45*
X12541301Y6896100D02*
D03*
X16586302Y6578600D02*
D03*
X16052800D02*
D03*
D46*
X15570200Y6773098D02*
D03*
D47*
Y7023100D02*
D03*
%TF.MD5,5c9ce4c7c171a63d7a871ed3b637fbe2*%
M02*
