%TF.GenerationSoftware,Altium Limited,Altium Designer,21.9.2 (33)*%
G04 Layer_Color=255*
%FSLAX45Y45*%
%MOMM*%
%TF.SameCoordinates,8C9FB855-A7A5-4AEE-82B0-D85B10D48A85*%
%TF.FilePolarity,Positive*%
%TF.FileFunction,Pads,Bot*%
%TF.Part,Single*%
G01*
G75*
%TA.AperFunction,ComponentPad*%
%ADD41C,0.32500*%
%ADD42C,0.47500*%
%ADD43R,1.35000X1.35000*%
%ADD44C,1.35000*%
%ADD45R,1.35000X1.35000*%
%ADD46C,1.27500*%
%ADD47R,1.27500X1.27500*%
%TA.AperFunction,SMDPad,CuDef*%
%ADD50R,3.00000X3.60000*%
%ADD51R,3.00000X2.60000*%
D41*
X17049802Y7838999D02*
D03*
Y8417001D02*
D03*
D42*
X17260500Y9363304D02*
D03*
Y10023302D02*
D03*
D43*
X15608299Y7512101D02*
D03*
D44*
Y7712100D02*
D03*
Y7912100D02*
D03*
Y8112100D02*
D03*
X12741300Y6896100D02*
D03*
X12941299D02*
D03*
X13141299D02*
D03*
X16786301Y6578600D02*
D03*
X16986301D02*
D03*
X17186301D02*
D03*
X17386301D02*
D03*
X17586301D02*
D03*
X16252800D02*
D03*
D45*
X12541301Y6896100D02*
D03*
X16586302Y6578600D02*
D03*
X16052800D02*
D03*
D46*
X15570200Y6773098D02*
D03*
D47*
Y7023100D02*
D03*
D50*
X12915900Y7975600D02*
D03*
D51*
X15055901D02*
D03*
%TF.MD5,7ecc4a87170fef4a2eb5efb88348f73f*%
M02*
