%TF.GenerationSoftware,Altium Limited,Altium Designer,21.9.2 (33)*%
G04 Layer_Color=16711935*
%FSLAX45Y45*%
%MOMM*%
%TF.SameCoordinates,8C9FB855-A7A5-4AEE-82B0-D85B10D48A85*%
%TF.FilePolarity,Positive*%
%TF.FileFunction,Other,Mechanical_13*%
%TF.Part,Single*%
G01*
G75*
%TA.AperFunction,NonConductor*%
%ADD52C,0.25400*%
%ADD66C,0.20000*%
%ADD69C,0.10000*%
%ADD70C,0.12700*%
D52*
X15317603Y7195602D02*
Y8755598D01*
X12938603D02*
X15317603D01*
X12938603Y7195602D02*
Y8755598D01*
Y7195602D02*
X15317603D01*
X11866601Y8066202D02*
X12466599D01*
Y7466198D02*
Y8066202D01*
X11866601Y7466198D02*
X12466599D01*
X11866601D02*
Y8066202D01*
X11716202Y8829299D02*
X12566198D01*
X11716202D02*
Y9179301D01*
X12566198D01*
Y8829299D02*
Y9179301D01*
D66*
X15907201Y10200500D02*
G03*
X15907201Y10200500I-10000J0D01*
G01*
X12071800D02*
G03*
X12071800Y10200500I-10000J0D01*
G01*
X13989500D02*
G03*
X13989500Y10200500I-10000J0D01*
G01*
X17677802Y7681001D02*
Y8574999D01*
X16942801D02*
X17677802D01*
X16942801Y7681001D02*
Y8574999D01*
Y7681001D02*
X17677802D01*
X16188496Y8950305D02*
Y10455300D01*
X17663499D01*
Y8950305D02*
Y10455300D01*
X16188496Y8950305D02*
X17663499D01*
D69*
X17557600Y8876400D02*
X17697600D01*
X17557600Y8656400D02*
X17697600D01*
Y8876400D01*
X17557600Y8656400D02*
Y8876400D01*
X15843100Y8987300D02*
X15983099D01*
X15843100Y8767300D02*
X15983099D01*
Y8987300D01*
X15843100Y8767300D02*
Y8987300D01*
X13310703Y6653799D02*
X13510703D01*
Y6528801D02*
Y6653799D01*
X13310703Y6528801D02*
X13510703D01*
X13310703D02*
Y6653799D01*
Y6612098D02*
X13352399Y6653799D01*
X15508299Y7392101D02*
X15708299D01*
X15508299D02*
Y8232099D01*
X15708299D01*
Y7392101D02*
Y8232099D01*
X12949702Y8493801D02*
Y8638804D01*
X12729703Y8493801D02*
Y8638804D01*
Y8493801D02*
X12949702D01*
X12729703Y8638804D02*
X12949702D01*
X12129501Y7282998D02*
X12254499D01*
X12129501Y7068002D02*
Y7282998D01*
Y7068002D02*
X12254499D01*
Y7282998D01*
X11997202Y7191898D02*
Y7336902D01*
X11777203Y7191898D02*
Y7336902D01*
Y7191898D02*
X11997202D01*
X11777203Y7336902D02*
X11997202D01*
X12421301Y6796100D02*
Y6996100D01*
X13261299D01*
Y6796100D02*
Y6996100D01*
X12421301Y6796100D02*
X13261299D01*
X16466302Y6478600D02*
Y6678600D01*
X17706299D01*
Y6478600D02*
Y6678600D01*
X16466302Y6478600D02*
X17706299D01*
X12251802Y10164303D02*
Y10384302D01*
X12106798Y10164303D02*
Y10384302D01*
Y10164303D02*
X12251802D01*
X12106798Y10384302D02*
X12251802D01*
X12035302Y7014098D02*
Y7159102D01*
X11815298Y7014098D02*
Y7159102D01*
Y7014098D02*
X12035302D01*
X11815298Y7159102D02*
X12035302D01*
X17566502Y7347102D02*
X17595499D01*
X17654498Y7281799D01*
Y6891401D02*
Y7281799D01*
X17595499Y6826098D02*
X17654498Y6891401D01*
X17566502Y6826098D02*
X17595499D01*
X16956999Y6759600D02*
Y7413600D01*
X17566502D01*
Y6759600D02*
Y7413600D01*
X16956999Y6759600D02*
X17566502D01*
X15230202Y6528100D02*
Y7268098D01*
Y6528100D02*
X15805202D01*
Y7268098D01*
X15230202D02*
X15805202D01*
X13700999Y6508603D02*
X13920998D01*
X13700999Y6648602D02*
X13920998D01*
Y6508603D02*
Y6648602D01*
X13700999Y6508603D02*
Y6648602D01*
X14117401Y6641099D02*
X14317401D01*
Y6516101D02*
Y6641099D01*
X14117401Y6516101D02*
X14317401D01*
X14117401D02*
Y6641099D01*
Y6599403D02*
X14159097Y6641099D01*
X14930202D02*
X15130202D01*
Y6516101D02*
Y6641099D01*
X14930202Y6516101D02*
X15130202D01*
X14930202D02*
Y6641099D01*
Y6599403D02*
X14971898Y6641099D01*
X12891602Y6521303D02*
X13111601D01*
X12891602Y6661302D02*
X13111601D01*
Y6521303D02*
Y6661302D01*
X12891602Y6521303D02*
Y6661302D01*
X14513799Y6508603D02*
X14733798D01*
X14513799Y6648602D02*
X14733798D01*
Y6508603D02*
Y6648602D01*
X14513799Y6508603D02*
Y6648602D01*
X12996397Y9763801D02*
Y9908804D01*
X13216397Y9763801D02*
Y9908804D01*
X12996397D02*
X13216397D01*
X12996397Y9763801D02*
X13216397D01*
X14228304Y9908804D02*
X14448302D01*
X14228304Y9763801D02*
X14448302D01*
X14228304D02*
Y9908804D01*
X14448302Y9763801D02*
Y9908804D01*
X14520403D02*
X14740402D01*
X14520403Y9763801D02*
X14740402D01*
X14520403D02*
Y9908804D01*
X14740402Y9763801D02*
Y9908804D01*
X15002399Y7253905D02*
X15147401D01*
X15002399Y7033905D02*
X15147401D01*
Y7253905D01*
X15002399Y7033905D02*
Y7253905D01*
X15718301Y8487298D02*
Y8632302D01*
X15498303Y8487298D02*
Y8632302D01*
Y8487298D02*
X15718301D01*
X15498303Y8632302D02*
X15718301D01*
X13783803Y9791700D02*
Y9931705D01*
X14003802Y9791700D02*
Y9931705D01*
X13783803D02*
X14003802D01*
X13783803Y9791700D02*
X14003802D01*
X15692902Y9255801D02*
Y9400804D01*
X15472903Y9255801D02*
Y9400804D01*
Y9255801D02*
X15692902D01*
X15472903Y9400804D02*
X15692902D01*
Y9433601D02*
Y9578604D01*
X15472903Y9433601D02*
Y9578604D01*
Y9433601D02*
X15692902D01*
X15472903Y9578604D02*
X15692902D01*
X15718301Y8684301D02*
Y8829304D01*
X15498303Y8684301D02*
Y8829304D01*
Y8684301D02*
X15718301D01*
X15498303Y8829304D02*
X15718301D01*
X13351997Y9931705D02*
X13572002D01*
X13351997Y9791700D02*
X13572002D01*
X13351997D02*
Y9931705D01*
X13572002Y9791700D02*
Y9931705D01*
X12911597Y8724900D02*
Y8864905D01*
X12691598Y8724900D02*
Y8864905D01*
Y8724900D02*
X12911597D01*
X12691598Y8864905D02*
X12911597D01*
X12962402Y8062001D02*
Y8207004D01*
X12742403Y8062001D02*
Y8207004D01*
Y8062001D02*
X12962402D01*
X12742403Y8207004D02*
X12962402D01*
Y7858801D02*
Y8003804D01*
X12742403Y7858801D02*
Y8003804D01*
Y7858801D02*
X12962402D01*
X12742403Y8003804D02*
X12962402D01*
X11878798Y8277901D02*
Y8422899D01*
X12098797Y8277901D02*
Y8422899D01*
X11878798Y8277901D02*
X12098797D01*
X11878798Y8422899D02*
X12098797D01*
X12580600Y8327004D02*
Y8577006D01*
X12260600D02*
X12580600D01*
X12260600Y8327004D02*
Y8577006D01*
Y8327004D02*
X12580600D01*
X14595998Y7253900D02*
X14741002D01*
X14595998Y7033900D02*
X14741002D01*
Y7253900D01*
X14595998Y7033900D02*
Y7253900D01*
X14799197Y7033900D02*
X14944202D01*
X14799197Y7253900D02*
X14944202D01*
X14799197Y7033900D02*
Y7253900D01*
X14944202Y7033900D02*
Y7253900D01*
X13747598Y6995800D02*
Y7215805D01*
X13887602Y6995800D02*
Y7215805D01*
X13747598Y6995800D02*
X13887602D01*
X13747598Y7215805D02*
X13887602D01*
X14192097D02*
X14332097D01*
X14192097Y6995805D02*
X14332097D01*
Y7215805D01*
X14192097Y6995805D02*
Y7215805D01*
X14405502Y7033900D02*
Y7253900D01*
X14550502Y7033900D02*
Y7253900D01*
X14405502Y7033900D02*
X14550502D01*
X14405502Y7253900D02*
X14550502D01*
X13960999Y7266605D02*
X14106001D01*
X13960999Y7046605D02*
X14106001D01*
Y7266605D01*
X13960999Y7046605D02*
Y7266605D01*
X13338698Y7253905D02*
X13483702D01*
X13338698Y7033905D02*
X13483702D01*
Y7253905D01*
X13338698Y7033905D02*
Y7253905D01*
X13529198D02*
X13674197D01*
X13529198Y7033900D02*
X13674197D01*
Y7253905D01*
X13529198Y7033900D02*
Y7253905D01*
X12729698Y7642901D02*
Y7787904D01*
X12949696Y7642901D02*
Y7787904D01*
X12729698D02*
X12949696D01*
X12729698Y7642901D02*
X12949696D01*
X12729698Y7439701D02*
Y7584704D01*
X12949696Y7439701D02*
Y7584704D01*
X12729698D02*
X12949696D01*
X12729698Y7439701D02*
X12949696D01*
X12411598Y7380900D02*
X12556602D01*
X12411598Y7160900D02*
X12556602D01*
Y7380900D01*
X12411598Y7160900D02*
Y7380900D01*
X12098797Y8481101D02*
Y8626104D01*
X11878798Y8481101D02*
Y8626104D01*
X12098797D01*
X11878798Y8481101D02*
X12098797D01*
X12729703Y9045204D02*
X12949702D01*
X12729703Y8900201D02*
X12949702D01*
X12729703D02*
Y9045204D01*
X12949702Y8900201D02*
Y9045204D01*
X12465202Y10227793D02*
Y10447797D01*
X12325198Y10227793D02*
Y10447797D01*
Y10227793D02*
X12465202D01*
X12325198Y10447797D02*
X12465202D01*
X15322403Y10460497D02*
X15462402D01*
X15322403Y10240498D02*
X15462402D01*
Y10460497D01*
X15322403Y10240498D02*
Y10460497D01*
X14167001Y10240496D02*
Y10460501D01*
X14026997Y10240496D02*
Y10460501D01*
Y10240496D02*
X14167001D01*
X14026997Y10460501D02*
X14167001D01*
X15103998Y10384302D02*
X15249002D01*
X15103998Y10164298D02*
X15249002D01*
Y10384302D01*
X15103998Y10164298D02*
Y10384302D01*
X13440298D02*
X13585303D01*
X13440298Y10164303D02*
X13585303D01*
X13440298D02*
Y10384302D01*
X13585303Y10164303D02*
Y10384302D01*
X12463003Y6521298D02*
Y6661302D01*
X12683002Y6521298D02*
Y6661302D01*
X12463003D02*
X12683002D01*
X12463003Y6521298D02*
X12683002D01*
X11949501Y6906402D02*
X12024502Y6831401D01*
X11724498Y6906402D02*
X12024502D01*
X11724498Y6606398D02*
Y6906402D01*
Y6606398D02*
X12024502D01*
Y6906402D01*
X13023698Y10227798D02*
X13163696D01*
X13023698Y10447797D02*
X13163696D01*
X13023698Y10227798D02*
Y10447797D01*
X13163696Y10227798D02*
Y10447797D01*
X12553803D02*
X12693802D01*
X12553803Y10227798D02*
X12693802D01*
Y10447797D01*
X12553803Y10227798D02*
Y10447797D01*
X16264401Y7382398D02*
Y7527402D01*
X16044403Y7382398D02*
Y7527402D01*
Y7382398D02*
X16264401D01*
X16044403Y7527402D02*
X16264401D01*
X16044398Y7705202D02*
X16264401D01*
X16044398Y7560198D02*
X16264401D01*
X16044398D02*
Y7705202D01*
X16264401Y7560198D02*
Y7705202D01*
Y7204598D02*
Y7349602D01*
X16044398Y7204598D02*
Y7349602D01*
Y7204598D02*
X16264401D01*
X16044398Y7349602D02*
X16264401D01*
X16395598Y7269201D02*
X16573602D01*
Y7549200D01*
X16395598D02*
X16573602D01*
X16395598Y7269201D02*
Y7549200D01*
Y7096897D02*
X16573602D01*
X16395598Y6816898D02*
Y7096897D01*
Y6816898D02*
X16573602D01*
Y7096897D01*
X11857700Y9811598D02*
X11922699Y9876602D01*
X11857700Y9376598D02*
Y9876602D01*
Y9376598D02*
X12297700D01*
Y9876602D01*
X11857700D02*
X12297700D01*
X16486200Y8165099D02*
X16686200D01*
Y8040101D02*
Y8165099D01*
X16486200Y8040101D02*
X16686200D01*
X16486200D02*
Y8165099D01*
Y8123398D02*
X16527902Y8165099D01*
X16488898Y7778598D02*
X16708902D01*
X16488898Y7918602D02*
X16708902D01*
Y7778598D02*
Y7918602D01*
X16488898Y7778598D02*
Y7918602D01*
X16273705Y8540598D02*
Y8680597D01*
X16053699Y8540598D02*
Y8680597D01*
Y8540598D02*
X16273705D01*
X16053699Y8680597D02*
X16273705D01*
X16053699Y7931297D02*
X16273705D01*
X16053699Y7791298D02*
X16273705D01*
X16053699D02*
Y7931297D01*
X16273705Y7791298D02*
Y7931297D01*
X16053699Y8185297D02*
X16273705D01*
X16053699Y8045298D02*
X16273705D01*
X16053699D02*
Y8185297D01*
X16273705Y8045298D02*
Y8185297D01*
X16053699Y8426597D02*
X16273705D01*
X16053699Y8286598D02*
X16273705D01*
X16053699D02*
Y8426597D01*
X16273705Y8286598D02*
Y8426597D01*
X16488902Y8680602D02*
X16708902D01*
X16488902Y8540598D02*
X16708902D01*
X16488902D02*
Y8680602D01*
X16708902Y8540598D02*
Y8680602D01*
X16488902Y8286603D02*
X16708902D01*
X16488902Y8426602D02*
X16708902D01*
Y8286603D02*
Y8426602D01*
X16488902Y8286603D02*
Y8426602D01*
X12147398Y6840997D02*
X12287402D01*
X12147398Y6620998D02*
X12287402D01*
Y6840997D01*
X12147398Y6620998D02*
Y6840997D01*
X14522298Y10240503D02*
X14662297D01*
X14522298Y10460502D02*
X14662297D01*
X14522298Y10240503D02*
Y10460502D01*
X14662297Y10240503D02*
Y10460502D01*
X14268303Y10240498D02*
Y10460497D01*
X14408302Y10240498D02*
Y10460497D01*
X14268303Y10240498D02*
X14408302D01*
X14268303Y10460497D02*
X14408302D01*
X15952800Y6677101D02*
X16352798D01*
Y6480099D02*
Y6677101D01*
X15952800Y6480099D02*
X16352798D01*
X15952800D02*
Y6677101D01*
X12782398Y10227793D02*
Y10447797D01*
X12922401Y10227793D02*
Y10447797D01*
X12782398Y10227793D02*
X12922401D01*
X12782398Y10447797D02*
X12922401D01*
X13392302Y10227798D02*
Y10447797D01*
X13252303Y10227798D02*
Y10447797D01*
X13392302D01*
X13252303Y10227798D02*
X13392302D01*
D70*
X15547203Y10538501D02*
X15847202D01*
X15547203Y10162499D02*
Y10538501D01*
Y10162499D02*
X15847202D01*
Y10538501D01*
X12011797Y10162499D02*
Y10538501D01*
X11711798Y10162499D02*
X12011797D01*
X11711798D02*
Y10538501D01*
X12011797D01*
X13929501Y10162499D02*
Y10538501D01*
X13629503Y10162499D02*
X13929501D01*
X13629503D02*
Y10538501D01*
X13929501D01*
%TF.MD5,a4509a68706edc12bc481e477179f2d0*%
M02*
