%TF.GenerationSoftware,Altium Limited,Altium Designer,21.9.2 (33)*%
G04 Layer_Color=32768*
%FSLAX45Y45*%
%MOMM*%
%TF.SameCoordinates,8C9FB855-A7A5-4AEE-82B0-D85B10D48A85*%
%TF.FilePolarity,Positive*%
%TF.FileFunction,Other,Mechanical_15*%
%TF.Part,Single*%
G01*
G75*
%TA.AperFunction,NonConductor*%
%ADD69C,0.10000*%
%ADD95C,0.05000*%
%ADD96C,0.00100*%
D69*
X17627600Y8716400D02*
Y8816400D01*
X17577600Y8766400D02*
X17677600D01*
X16735100Y7408001D02*
Y8847999D01*
X17777800D01*
Y7408001D02*
Y8847999D01*
X16735100Y7408001D02*
X17777800D01*
X15948497Y8740303D02*
Y10665303D01*
X17763499D01*
Y8740303D02*
Y10665303D01*
X15948497Y8740303D02*
X17763499D01*
X15913100Y8827300D02*
Y8927300D01*
X15863100Y8877300D02*
X15963100D01*
X12789703Y8566302D02*
X12889702D01*
X12839700Y8516305D02*
Y8616305D01*
X11837203Y7264400D02*
X11937202D01*
X11887200Y7214403D02*
Y7314402D01*
X12129303Y10274300D02*
X12229302D01*
X12179300Y10224303D02*
Y10324302D01*
X11875298Y7086600D02*
X11975302D01*
X11925300Y7036603D02*
Y7136602D01*
X13811002Y6528603D02*
Y6628602D01*
X13760999Y6578600D02*
X13860999D01*
X13001601Y6541303D02*
Y6641302D01*
X12951602Y6591300D02*
X13051602D01*
X14623801Y6528603D02*
Y6628602D01*
X14573799Y6578600D02*
X14673798D01*
X13056398Y9836302D02*
X13156396D01*
X13106400Y9786305D02*
Y9886305D01*
X14338306Y9786300D02*
Y9886300D01*
X14288303Y9836302D02*
X14388303D01*
X14630400Y9786300D02*
Y9886300D01*
X14580403Y9836302D02*
X14680402D01*
X15074899Y7093905D02*
Y7193905D01*
X15024902Y7143902D02*
X15124902D01*
X15558302Y8559800D02*
X15658302D01*
X15608299Y8509803D02*
Y8609802D01*
X13843803Y9861702D02*
X13943802D01*
X13893800Y9811700D02*
Y9911705D01*
X15532903Y9328302D02*
X15632903D01*
X15582899Y9278305D02*
Y9378305D01*
X15532903Y9506102D02*
X15632903D01*
X15582906Y9456105D02*
Y9556105D01*
X15558302Y8756802D02*
X15658302D01*
X15608299Y8706805D02*
Y8806805D01*
X13462000Y9811700D02*
Y9911705D01*
X13411998Y9861702D02*
X13512003D01*
X12751598Y8794902D02*
X12851598D01*
X12801601Y8744900D02*
Y8844905D01*
X12802403Y8134502D02*
X12902402D01*
X12852400Y8084505D02*
Y8184505D01*
X12802403Y7931302D02*
X12902402D01*
X12852400Y7881305D02*
Y7981305D01*
X11938798Y8350397D02*
X12038797D01*
X11988800Y8300400D02*
Y8400400D01*
X12700599Y8207004D02*
Y8697006D01*
X12140601D02*
X12700599D01*
X12140601Y8207004D02*
Y8697006D01*
Y8207004D02*
X12700599D01*
X14668500Y7093900D02*
Y7193900D01*
X14618503Y7143902D02*
X14718501D01*
X14871700Y7093900D02*
Y7193900D01*
X14821703Y7143902D02*
X14921703D01*
X13767598Y7105802D02*
X13867603D01*
X13817599Y7055805D02*
Y7155805D01*
X14262100Y7055805D02*
Y7155805D01*
X14212099Y7105802D02*
X14312097D01*
X14428003Y7143897D02*
X14528001D01*
X14478000Y7093900D02*
Y7193900D01*
X14033501Y7106605D02*
Y7206605D01*
X13983504Y7156602D02*
X14083502D01*
X13411200Y7093905D02*
Y7193905D01*
X13361203Y7143902D02*
X13461201D01*
X13601700Y7093900D02*
Y7193905D01*
X13551698Y7143902D02*
X13651697D01*
X12789698Y7715402D02*
X12889697D01*
X12839700Y7665400D02*
Y7765400D01*
X12789698Y7512202D02*
X12889697D01*
X12839700Y7462200D02*
Y7562200D01*
X12484100Y7220900D02*
Y7320900D01*
X12434103Y7270902D02*
X12534102D01*
X11938798Y8553602D02*
X12038797D01*
X11988800Y8503605D02*
Y8603605D01*
X12839705Y8922705D02*
Y9022705D01*
X12789703Y8972702D02*
X12889702D01*
X12345198Y10337795D02*
X12445202D01*
X12395200Y10287798D02*
Y10387797D01*
X15392400Y10300498D02*
Y10400497D01*
X15342403Y10350500D02*
X15442403D01*
X14046999Y10350498D02*
X14147002D01*
X14097000Y10300501D02*
Y10400501D01*
X15176500Y10224298D02*
Y10324302D01*
X15126498Y10274300D02*
X15226497D01*
X13512801Y10224303D02*
Y10324302D01*
X13462804Y10274300D02*
X13562802D01*
X12523003Y6591300D02*
X12623002D01*
X12573000Y6541298D02*
Y6641302D01*
X13093700Y10287798D02*
Y10387797D01*
X13043698Y10337795D02*
X13143697D01*
X12623800Y10287798D02*
Y10387797D01*
X12573803Y10337800D02*
X12673802D01*
X16104404Y7454900D02*
X16204402D01*
X16154401Y7404898D02*
Y7504897D01*
Y7582698D02*
Y7682697D01*
X16104398Y7632700D02*
X16204402D01*
X16104398Y7277100D02*
X16204402D01*
X16154401Y7227098D02*
Y7327097D01*
X16295599Y7104197D02*
X16673601D01*
Y7714198D01*
X16295599D02*
X16673601D01*
X16295599Y7104197D02*
Y7714198D01*
Y7261901D02*
X16673601D01*
X16295599Y6651899D02*
Y7261901D01*
Y6651899D02*
X16673601D01*
Y7261901D01*
X16598900Y7798598D02*
Y7898602D01*
X16548898Y7848600D02*
X16648897D01*
X16113699Y8610600D02*
X16213704D01*
X16163701Y8560598D02*
Y8660597D01*
Y7811298D02*
Y7911297D01*
X16113699Y7861300D02*
X16213704D01*
X16163701Y8065298D02*
Y8165297D01*
X16113699Y8115300D02*
X16213704D01*
X16163701Y8306598D02*
Y8406597D01*
X16113699Y8356600D02*
X16213704D01*
X16598900Y8560598D02*
Y8660602D01*
X16548903Y8610600D02*
X16648901D01*
X16598900Y8306603D02*
Y8406602D01*
X16548903Y8356600D02*
X16648901D01*
X12217400Y6680998D02*
Y6780997D01*
X12167398Y6731000D02*
X12267402D01*
X14592300Y10300503D02*
Y10400502D01*
X14542297Y10350500D02*
X14642297D01*
X14288303D02*
X14388303D01*
X14338300Y10300498D02*
Y10400497D01*
X12802399Y10337795D02*
X12902402D01*
X12852400Y10287792D02*
Y10387797D01*
X13272302Y10337795D02*
X13372302D01*
X13322301Y10287798D02*
Y10387797D01*
D95*
X17194000Y7086600D02*
G03*
X17194000Y7086600I-35000J0D01*
G01*
X17502600Y8981400D02*
X17752600D01*
X17502600Y8551400D02*
X17752600D01*
Y8981400D01*
X17502600Y8551400D02*
Y8981400D01*
X15788100Y9092300D02*
X16038100D01*
X15788100Y8662300D02*
X16038100D01*
Y9092300D01*
X15788100Y8662300D02*
Y9092300D01*
X13225703Y6706301D02*
X13595702D01*
Y6476299D02*
Y6706301D01*
X13225703Y6476299D02*
X13595702D01*
X13225703D02*
Y6706301D01*
X15483302Y7367102D02*
X15733298D01*
X15483302D02*
Y8257098D01*
X15733298D01*
Y7367102D02*
Y8257098D01*
X12974701Y8481304D02*
Y8651301D01*
X12704699Y8481304D02*
Y8651301D01*
Y8481304D02*
X12974701D01*
X12704699Y8651301D02*
X12974701D01*
X12092000Y7353000D02*
X12292000D01*
X12092000Y6998000D02*
Y7353000D01*
Y6998000D02*
X12292000D01*
Y7353000D01*
X12022201Y7179401D02*
Y7349399D01*
X11752204Y7179401D02*
Y7349399D01*
Y7179401D02*
X12022201D01*
X11752204Y7349399D02*
X12022201D01*
X12396302Y6771102D02*
Y7021098D01*
X13286298D01*
Y6771102D02*
Y7021098D01*
X12396302Y6771102D02*
X13286298D01*
X15522198Y10563499D02*
X15872202D01*
X15522198Y10137501D02*
Y10563499D01*
Y10137501D02*
X15872202D01*
Y10563499D01*
X16441298Y6453602D02*
Y6703598D01*
X17731297D01*
Y6453602D02*
Y6703598D01*
X16441298Y6453602D02*
X17731297D01*
X12264299Y10139299D02*
Y10409301D01*
X12094301Y10139299D02*
Y10409301D01*
Y10139299D02*
X12264299D01*
X12094301Y10409301D02*
X12264299D01*
X12060301Y7001601D02*
Y7171599D01*
X11790299Y7001601D02*
Y7171599D01*
Y7001601D02*
X12060301D01*
X11790299Y7171599D02*
X12060301D01*
X17108998Y7086600D02*
X17208998D01*
X17159000Y7036598D02*
Y7136597D01*
X16573997Y6721602D02*
Y7451598D01*
X17743999D01*
Y6721602D02*
Y7451598D01*
X16573997Y6721602D02*
X17743999D01*
X15205202Y6503101D02*
Y7293102D01*
Y6503101D02*
X15830199D01*
Y7293102D01*
X15205202D02*
X15830199D01*
X13596001Y6453602D02*
X14026003D01*
X13596001Y6703598D02*
X14026003D01*
Y6453602D02*
Y6703598D01*
X13596001Y6453602D02*
Y6703598D01*
X14032404Y6693601D02*
X14402399D01*
Y6463599D02*
Y6693601D01*
X14032404Y6463599D02*
X14402399D01*
X14032404D02*
Y6693601D01*
X14845203D02*
X15215199D01*
Y6463599D02*
Y6693601D01*
X14845203Y6463599D02*
X15215199D01*
X14845203D02*
Y6693601D01*
X12786599Y6466302D02*
X13216600D01*
X12786599Y6716298D02*
X13216600D01*
Y6466302D02*
Y6716298D01*
X12786599Y6466302D02*
Y6716298D01*
X14408800Y6453602D02*
X14838802D01*
X14408800Y6703598D02*
X14838802D01*
Y6453602D02*
Y6703598D01*
X14408800Y6453602D02*
Y6703598D01*
X12971399Y9751304D02*
Y9921301D01*
X13241402Y9751304D02*
Y9921301D01*
X12971399D02*
X13241402D01*
X12971399Y9751304D02*
X13241402D01*
X14203304Y9921301D02*
X14473302D01*
X14203304Y9751304D02*
X14473302D01*
X14203304D02*
Y9921301D01*
X14473302Y9751304D02*
Y9921301D01*
X14495404D02*
X14765401D01*
X14495404Y9751304D02*
X14765401D01*
X14495404D02*
Y9921301D01*
X14765401Y9751304D02*
Y9921301D01*
X14989902Y7278903D02*
X15159898D01*
X14989902Y7008906D02*
X15159898D01*
Y7278903D01*
X14989902Y7008906D02*
Y7278903D01*
X15743301Y8474801D02*
Y8644799D01*
X15473299Y8474801D02*
Y8644799D01*
Y8474801D02*
X15743301D01*
X15473299Y8644799D02*
X15743301D01*
X13678799Y9736704D02*
Y9986701D01*
X14108801Y9736704D02*
Y9986701D01*
X13678799D02*
X14108801D01*
X13678799Y9736704D02*
X14108801D01*
X15717902Y9243304D02*
Y9413301D01*
X15447899Y9243304D02*
Y9413301D01*
Y9243304D02*
X15717902D01*
X15447899Y9413301D02*
X15717902D01*
Y9421104D02*
Y9591101D01*
X15447903Y9421104D02*
Y9591101D01*
Y9421104D02*
X15717902D01*
X15447903Y9591101D02*
X15717902D01*
X15743301Y8671804D02*
Y8841801D01*
X15473299Y8671804D02*
Y8841801D01*
Y8671804D02*
X15743301D01*
X15473299Y8841801D02*
X15743301D01*
X13246999Y9986701D02*
X13677000D01*
X13246999Y9736704D02*
X13677000D01*
X13246999D02*
Y9986701D01*
X13677000Y9736704D02*
Y9986701D01*
X13016602Y8669904D02*
Y8919901D01*
X12586599Y8669904D02*
Y8919901D01*
Y8669904D02*
X13016602D01*
X12586599Y8919901D02*
X13016602D01*
X12987401Y8049504D02*
Y8219501D01*
X12717399Y8049504D02*
Y8219501D01*
Y8049504D02*
X12987401D01*
X12717399Y8219501D02*
X12987401D01*
Y7846304D02*
Y8016301D01*
X12717399Y7846304D02*
Y8016301D01*
Y7846304D02*
X12987401D01*
X12717399Y8016301D02*
X12987401D01*
X11853799Y8265399D02*
Y8435401D01*
X12123801Y8265399D02*
Y8435401D01*
X11853799Y8265399D02*
X12123801D01*
X11853799Y8435401D02*
X12123801D01*
X14583501Y7278898D02*
X14753499D01*
X14583501Y7008901D02*
X14753499D01*
Y7278898D01*
X14583501Y7008901D02*
Y7278898D01*
X14786700Y7008901D02*
X14956699D01*
X14786700Y7278898D02*
X14956699D01*
X14786700Y7008901D02*
Y7278898D01*
X14956699Y7008901D02*
Y7278898D01*
X13692603Y6890802D02*
Y7320803D01*
X13942598Y6890802D02*
Y7320803D01*
X13692603Y6890802D02*
X13942598D01*
X13692603Y7320803D02*
X13942598D01*
X14137096D02*
X14387099D01*
X14137096Y6890802D02*
X14387099D01*
Y7320803D01*
X14137096Y6890802D02*
Y7320803D01*
X14393001Y7008896D02*
Y7278898D01*
X14562999Y7008896D02*
Y7278898D01*
X14393001Y7008896D02*
X14562999D01*
X14393001Y7278898D02*
X14562999D01*
X13948502Y7291603D02*
X14118500D01*
X13948502Y7021606D02*
X14118500D01*
Y7291603D01*
X13948502Y7021606D02*
Y7291603D01*
X13326201Y7278903D02*
X13496199D01*
X13326201Y7008906D02*
X13496199D01*
Y7278903D01*
X13326201Y7008906D02*
Y7278903D01*
X13516696D02*
X13686699D01*
X13516696Y7008901D02*
X13686699D01*
Y7278903D01*
X13516696Y7008901D02*
Y7278903D01*
X12704699Y7630404D02*
Y7800401D01*
X12974701Y7630404D02*
Y7800401D01*
X12704699D02*
X12974701D01*
X12704699Y7630404D02*
X12974701D01*
X12704699Y7427204D02*
Y7597201D01*
X12974701Y7427204D02*
Y7597201D01*
X12704699D02*
X12974701D01*
X12704699Y7427204D02*
X12974701D01*
X12399101Y7405898D02*
X12569099D01*
X12399101Y7135901D02*
X12569099D01*
Y7405898D01*
X12399101Y7135901D02*
Y7405898D01*
X12123801Y8468604D02*
Y8638601D01*
X11853799Y8468604D02*
Y8638601D01*
X12123801D01*
X11853799Y8468604D02*
X12123801D01*
X12704704Y9057701D02*
X12974701D01*
X12704704Y8887704D02*
X12974701D01*
X12704704D02*
Y9057701D01*
X12974701Y8887704D02*
Y9057701D01*
X12520198Y10122794D02*
Y10552796D01*
X12270202Y10122794D02*
Y10552796D01*
Y10122794D02*
X12520198D01*
X12270202Y10552796D02*
X12520198D01*
X12036801Y10137501D02*
Y10563499D01*
X11686799Y10137501D02*
X12036801D01*
X11686799D02*
Y10563499D01*
X12036801D01*
X13954501Y10137501D02*
Y10563499D01*
X13604504Y10137501D02*
X13954501D01*
X13604504D02*
Y10563499D01*
X13954501D01*
X15267403Y10565501D02*
X15517398D01*
X15267403Y10135499D02*
X15517398D01*
Y10565501D01*
X15267403Y10135499D02*
Y10565501D01*
X14221999Y10135498D02*
Y10565499D01*
X13972002Y10135498D02*
Y10565499D01*
Y10135498D02*
X14221999D01*
X13972002Y10565499D02*
X14221999D01*
X15091501Y10409301D02*
X15261499D01*
X15091501Y10139299D02*
X15261499D01*
Y10409301D01*
X15091501Y10139299D02*
Y10409301D01*
X13427802D02*
X13597800D01*
X13427802Y10139299D02*
X13597800D01*
X13427802D02*
Y10409301D01*
X13597800Y10139299D02*
Y10409301D01*
X12357999Y6466302D02*
Y6716298D01*
X12788001Y6466302D02*
Y6716298D01*
X12357999D02*
X12788001D01*
X12357999Y6466302D02*
X12788001D01*
X11692001Y6971401D02*
X12056999D01*
X11692001Y6541399D02*
Y6971401D01*
Y6541399D02*
X12056999D01*
Y6971401D01*
X12968703Y10122794D02*
X13218698D01*
X12968703Y10552796D02*
X13218698D01*
X12968703Y10122794D02*
Y10552796D01*
X13218698Y10122794D02*
Y10552796D01*
X12498802Y10552801D02*
X12748798D01*
X12498802Y10122799D02*
X12748798D01*
Y10552801D01*
X12498802Y10122799D02*
Y10552801D01*
X16289401Y7369901D02*
Y7539899D01*
X16019405Y7369901D02*
Y7539899D01*
Y7369901D02*
X16289401D01*
X16019405Y7539899D02*
X16289401D01*
X16019398Y7717699D02*
X16289401D01*
X16019398Y7547701D02*
X16289401D01*
X16019398D02*
Y7717699D01*
X16289401Y7547701D02*
Y7717699D01*
Y7192101D02*
Y7362099D01*
X16019398Y7192101D02*
Y7362099D01*
Y7192101D02*
X16289401D01*
X16019398Y7362099D02*
X16289401D01*
X11685199Y9346601D02*
Y9906599D01*
Y9346601D02*
X12470201D01*
Y9906599D01*
X11685199D02*
X12470201D01*
X16401202Y8217601D02*
X16771198D01*
Y7987599D02*
Y8217601D01*
X16401202Y7987599D02*
X16771198D01*
X16401202D02*
Y8217601D01*
X16383899Y7723602D02*
X16813901D01*
X16383899Y7973598D02*
X16813901D01*
Y7723602D02*
Y7973598D01*
X16383899Y7723602D02*
Y7973598D01*
X16378702Y8485602D02*
Y8735598D01*
X15948701Y8485602D02*
Y8735598D01*
Y8485602D02*
X16378702D01*
X15948701Y8735598D02*
X16378702D01*
X15948701Y7986298D02*
X16378702D01*
X15948701Y7736302D02*
X16378702D01*
X15948701D02*
Y7986298D01*
X16378702Y7736302D02*
Y7986298D01*
X15948701Y8240298D02*
X16378702D01*
X15948701Y7990302D02*
X16378702D01*
X15948701D02*
Y8240298D01*
X16378702Y7990302D02*
Y8240298D01*
X15948701Y8481598D02*
X16378702D01*
X15948701Y8231602D02*
X16378702D01*
X15948701D02*
Y8481598D01*
X16378702Y8231602D02*
Y8481598D01*
X16383899Y8735598D02*
X16813901D01*
X16383899Y8485602D02*
X16813901D01*
X16383899D02*
Y8735598D01*
X16813901Y8485602D02*
Y8735598D01*
X16383899Y8231602D02*
X16813901D01*
X16383899Y8481598D02*
X16813901D01*
Y8231602D02*
Y8481598D01*
X16383899Y8231602D02*
Y8481598D01*
X12092402Y6946001D02*
X12342398D01*
X12092402Y6515999D02*
X12342398D01*
Y6946001D01*
X12092402Y6515999D02*
Y6946001D01*
X14467296Y10135499D02*
X14717297D01*
X14467296Y10565501D02*
X14717297D01*
X14467296Y10135499D02*
Y10565501D01*
X14717297Y10135499D02*
Y10565501D01*
X14213303Y10135499D02*
Y10565501D01*
X14463298Y10135499D02*
Y10565501D01*
X14213303Y10135499D02*
X14463298D01*
X14213303Y10565501D02*
X14463298D01*
X15927802Y6702100D02*
X16377798D01*
Y6455100D02*
Y6702100D01*
X15927802Y6455100D02*
X16377798D01*
X15927802D02*
Y6702100D01*
X12727402Y10122794D02*
Y10552796D01*
X12977399Y10122794D02*
Y10552796D01*
X12727402Y10122794D02*
X12977399D01*
X12727402Y10552796D02*
X12977399D01*
X13447304Y10122794D02*
Y10552796D01*
X13197302Y10122794D02*
Y10552796D01*
X13447304D01*
X13197302Y10122794D02*
X13447304D01*
D96*
X16950803Y6750101D02*
Y7423099D01*
X17572803D01*
Y6750101D02*
Y7423099D01*
X16950803Y6750101D02*
X17572803D01*
%TF.MD5,169d9bbe8f08c9758b0d97dfe0a8f35a*%
M02*
