%TF.GenerationSoftware,Altium Limited,Altium Designer,21.9.2 (33)*%
G04 Layer_Color=65535*
%FSLAX45Y45*%
%MOMM*%
%TF.SameCoordinates,8C9FB855-A7A5-4AEE-82B0-D85B10D48A85*%
%TF.FilePolarity,Positive*%
%TF.FileFunction,Legend,Top*%
%TF.Part,Single*%
G01*
G75*
%TA.AperFunction,NonConductor*%
%ADD52C,0.25400*%
%ADD53C,0.15300*%
%ADD66C,0.20000*%
%ADD67C,0.50000*%
%ADD68C,0.25000*%
%ADD69C,0.10000*%
%ADD70C,0.12700*%
D52*
X11567890Y8060100D02*
G03*
X11567890Y8060100I-12090J0D01*
G01*
X12401300Y9342300D02*
G03*
X12401300Y9342300I-8400J0D01*
G01*
X11866601Y7466198D02*
X12466599D01*
Y8066202D01*
X11866601D02*
X12466599D01*
X11866601Y7466198D02*
Y8066202D01*
X12566198Y8829299D02*
Y9179301D01*
X11716202Y8829299D02*
Y9179301D01*
D53*
X13049310Y10541816D02*
Y10641784D01*
X13099294D01*
X13115955Y10625123D01*
Y10591800D01*
X13099294Y10575139D01*
X13049310D01*
X13082632D02*
X13115955Y10541816D01*
X13215923D02*
X13149277D01*
X13215923Y10608461D01*
Y10625123D01*
X13199261Y10641784D01*
X13165939D01*
X13149277Y10625123D01*
X13249245D02*
X13265907Y10641784D01*
X13299229D01*
X13315891Y10625123D01*
Y10558478D01*
X13299229Y10541816D01*
X13265907D01*
X13249245Y10558478D01*
Y10625123D01*
X11656000Y7609900D02*
X11556032D01*
Y7659884D01*
X11572694Y7676545D01*
X11606016D01*
X11622678Y7659884D01*
Y7609900D01*
Y7643222D02*
X11656000Y7676545D01*
X11572694Y7776513D02*
X11556032Y7759852D01*
Y7726529D01*
X11572694Y7709868D01*
X11589355D01*
X11606016Y7726529D01*
Y7759852D01*
X11622678Y7776513D01*
X11639339D01*
X11656000Y7759852D01*
Y7726529D01*
X11639339Y7709868D01*
X11556032Y7809836D02*
Y7876481D01*
Y7843158D01*
X11656000D01*
X12524800Y9360868D02*
Y9277561D01*
X12541461Y9260900D01*
X12574784D01*
X12591445Y9277561D01*
Y9360868D01*
X12624768Y9260900D02*
X12674752D01*
X12691413Y9277561D01*
X12674752Y9294222D01*
X12641429D01*
X12624768Y9310884D01*
X12641429Y9327545D01*
X12691413D01*
X12774719Y9260900D02*
X12741397D01*
X12724736Y9277561D01*
Y9310884D01*
X12741397Y9327545D01*
X12774719D01*
X12791381Y9310884D01*
Y9294222D01*
X12724736D01*
X11546900Y9260900D02*
Y9360868D01*
X11596884D01*
X11613545Y9344206D01*
Y9310884D01*
X11596884Y9294222D01*
X11546900D01*
X11646868Y9327545D02*
Y9260900D01*
Y9294222D01*
X11663529Y9310884D01*
X11680190Y9327545D01*
X11696852D01*
X17380009Y8992416D02*
Y9092384D01*
X17429994D01*
X17446655Y9075723D01*
Y9042400D01*
X17429994Y9025739D01*
X17380009D01*
X17413332D02*
X17446655Y8992416D01*
X17546623D02*
X17479977D01*
X17546623Y9059061D01*
Y9075723D01*
X17529961Y9092384D01*
X17496638D01*
X17479977Y9075723D01*
X17579945D02*
X17596606Y9092384D01*
X17629929D01*
X17646590Y9075723D01*
Y9059061D01*
X17629929Y9042400D01*
X17646590Y9025739D01*
Y9009077D01*
X17629929Y8992416D01*
X17596606D01*
X17579945Y9009077D01*
Y9025739D01*
X17596606Y9042400D01*
X17579945Y9059061D01*
Y9075723D01*
X17596606Y9042400D02*
X17629929D01*
X13102438Y7123884D02*
X13069116D01*
X13085777D01*
Y7040577D01*
X13069116Y7023916D01*
X13052455D01*
X13035794Y7040577D01*
X13135760Y7107223D02*
X13152423Y7123884D01*
X13185745D01*
X13202406Y7107223D01*
Y7090561D01*
X13185745Y7073900D01*
X13202406Y7057239D01*
Y7040577D01*
X13185745Y7023916D01*
X13152423D01*
X13135760Y7040577D01*
Y7057239D01*
X13152423Y7073900D01*
X13135760Y7090561D01*
Y7107223D01*
X13152423Y7073900D02*
X13185745D01*
X15375739Y7441384D02*
X15342416D01*
X15359077D01*
Y7358077D01*
X15342416Y7341416D01*
X15325755D01*
X15309094Y7358077D01*
X15459045Y7341416D02*
Y7441384D01*
X15409061Y7391400D01*
X15475706D01*
X15765477D02*
X15748816Y7374739D01*
Y7341416D01*
X15765477Y7324755D01*
X15832123D01*
X15848784Y7341416D01*
Y7374739D01*
X15832123Y7391400D01*
X15848784Y7424723D02*
Y7458045D01*
Y7441384D01*
X15748816D01*
X15765477Y7424723D01*
X15867078Y7082638D02*
X15850417Y7065977D01*
Y7032655D01*
X15867078Y7015993D01*
X15933722D01*
X15950385Y7032655D01*
Y7065977D01*
X15933722Y7082638D01*
X15950385Y7182606D02*
Y7115961D01*
X15883739Y7182606D01*
X15867078D01*
X15850417Y7165945D01*
Y7132623D01*
X15867078Y7115961D01*
X11574477Y7069938D02*
X11557816Y7053277D01*
Y7019955D01*
X11574477Y7003293D01*
X11641122D01*
X11657784Y7019955D01*
Y7053277D01*
X11641122Y7069938D01*
X11574477Y7103261D02*
X11557816Y7119923D01*
Y7153245D01*
X11574477Y7169906D01*
X11591139D01*
X11607800Y7153245D01*
Y7136584D01*
Y7153245D01*
X11624461Y7169906D01*
X11641122D01*
X11657784Y7153245D01*
Y7119923D01*
X11641122Y7103261D01*
X11574477Y7362038D02*
X11557816Y7345377D01*
Y7312055D01*
X11574477Y7295393D01*
X11641122D01*
X11657784Y7312055D01*
Y7345377D01*
X11641122Y7362038D01*
X11557816Y7462006D02*
Y7395361D01*
X11607800D01*
X11591139Y7428684D01*
Y7445345D01*
X11607800Y7462006D01*
X11641122D01*
X11657784Y7445345D01*
Y7412023D01*
X11641122Y7395361D01*
X15765477Y7603338D02*
X15748816Y7586677D01*
Y7553355D01*
X15765477Y7536693D01*
X15832121D01*
X15848784Y7553355D01*
Y7586677D01*
X15832121Y7603338D01*
X15848784Y7686645D02*
X15748816D01*
X15798801Y7636661D01*
Y7703306D01*
X12873839Y8389923D02*
X12857178Y8406584D01*
X12823856D01*
X12807195Y8389923D01*
Y8323277D01*
X12823856Y8306616D01*
X12857178D01*
X12873839Y8323277D01*
X12973807Y8406584D02*
X12940485Y8389923D01*
X12907161Y8356600D01*
Y8323277D01*
X12923824Y8306616D01*
X12957146D01*
X12973807Y8323277D01*
Y8339939D01*
X12957146Y8356600D01*
X12907161D01*
X12530939Y8174023D02*
X12514277Y8190684D01*
X12480955D01*
X12464294Y8174023D01*
Y8107377D01*
X12480955Y8090716D01*
X12514277D01*
X12530939Y8107377D01*
X12564261Y8190684D02*
X12630906D01*
Y8174023D01*
X12564261Y8107377D01*
Y8090716D01*
X13314377Y6828638D02*
X13297716Y6811977D01*
Y6778655D01*
X13314377Y6761993D01*
X13381023D01*
X13397684Y6778655D01*
Y6811977D01*
X13381023Y6828638D01*
Y6861961D02*
X13397684Y6878623D01*
Y6911945D01*
X13381023Y6928606D01*
X13314377D01*
X13297716Y6911945D01*
Y6878623D01*
X13314377Y6861961D01*
X13331039D01*
X13347701Y6878623D01*
Y6928606D01*
X12264647Y8174023D02*
X12247986Y8190684D01*
X12214663D01*
X12198002Y8174023D01*
Y8107377D01*
X12214663Y8090716D01*
X12247986D01*
X12264647Y8107377D01*
X12297970Y8090716D02*
X12331292D01*
X12314631D01*
Y8190684D01*
X12297970Y8174023D01*
X12381276Y8090716D02*
X12414598D01*
X12397937D01*
Y8190684D01*
X12381276Y8174023D01*
X14063676Y6799685D02*
X14047015Y6783024D01*
Y6749702D01*
X14063676Y6733040D01*
X14130322D01*
X14146983Y6749702D01*
Y6783024D01*
X14130322Y6799685D01*
X14146983Y6833008D02*
Y6866331D01*
Y6849670D01*
X14047015D01*
X14063676Y6833008D01*
Y6916315D02*
X14047015Y6932976D01*
Y6966298D01*
X14063676Y6982960D01*
X14130322D01*
X14146983Y6966298D01*
Y6932976D01*
X14130322Y6916315D01*
X14063676D01*
X12048682Y10105696D02*
X12032020Y10122358D01*
X11998698D01*
X11982036Y10105696D01*
Y10039051D01*
X11998698Y10022390D01*
X12032020D01*
X12048682Y10039051D01*
X12082004Y10022390D02*
X12115327D01*
X12098666D01*
Y10122358D01*
X12082004Y10105696D01*
X12231956Y10122358D02*
X12198633Y10105696D01*
X12165311Y10072374D01*
Y10039051D01*
X12181972Y10022390D01*
X12215295D01*
X12231956Y10039051D01*
Y10055712D01*
X12215295Y10072374D01*
X12165311D01*
X14724077Y6761585D02*
X14707416Y6744924D01*
Y6711602D01*
X14724077Y6694940D01*
X14790723D01*
X14807384Y6711602D01*
Y6744924D01*
X14790723Y6761585D01*
X14807384Y6794908D02*
Y6828231D01*
Y6811570D01*
X14707416D01*
X14724077Y6794908D01*
X14807384Y6944860D02*
Y6878215D01*
X14740738Y6944860D01*
X14724077D01*
X14707416Y6928198D01*
Y6894876D01*
X14724077Y6878215D01*
X15105077Y6761585D02*
X15088416Y6744924D01*
Y6711602D01*
X15105077Y6694940D01*
X15171722D01*
X15188383Y6711602D01*
Y6744924D01*
X15171722Y6761585D01*
X15188383Y6794908D02*
Y6828231D01*
Y6811570D01*
X15088416D01*
X15105077Y6794908D01*
X15188383Y6928198D02*
X15088416D01*
X15138399Y6878215D01*
Y6944860D01*
X15562685Y8440723D02*
X15546024Y8457384D01*
X15512701D01*
X15496040Y8440723D01*
Y8374077D01*
X15512701Y8357416D01*
X15546024D01*
X15562685Y8374077D01*
X15596008Y8357416D02*
X15629330D01*
X15612669D01*
Y8457384D01*
X15596008Y8440723D01*
X15745959Y8457384D02*
X15679315D01*
Y8407400D01*
X15712637Y8424061D01*
X15729298D01*
X15745959Y8407400D01*
Y8374077D01*
X15729298Y8357416D01*
X15695976D01*
X15679315Y8374077D01*
X15537285Y9698023D02*
X15520624Y9714684D01*
X15487302D01*
X15470641Y9698023D01*
Y9631377D01*
X15487302Y9614716D01*
X15520624D01*
X15537285Y9631377D01*
X15570609Y9614716D02*
X15603931D01*
X15587270D01*
Y9714684D01*
X15570609Y9698023D01*
X15653915Y9714684D02*
X15720560D01*
Y9698023D01*
X15653915Y9631377D01*
Y9614716D01*
X14597485Y10079023D02*
X14580824Y10095684D01*
X14547502D01*
X14530840Y10079023D01*
Y10012377D01*
X14547502Y9995716D01*
X14580824D01*
X14597485Y10012377D01*
X14630807Y9995716D02*
X14664131D01*
X14647470D01*
Y10095684D01*
X14630807Y10079023D01*
X14714114D02*
X14730775Y10095684D01*
X14764098D01*
X14780760Y10079023D01*
Y10062361D01*
X14764098Y10045700D01*
X14780760Y10029039D01*
Y10012377D01*
X14764098Y9995716D01*
X14730775D01*
X14714114Y10012377D01*
Y10029039D01*
X14730775Y10045700D01*
X14714114Y10062361D01*
Y10079023D01*
X14730775Y10045700D02*
X14764098D01*
X14279985Y10079023D02*
X14263324Y10095684D01*
X14230002D01*
X14213341Y10079023D01*
Y10012377D01*
X14230002Y9995716D01*
X14263324D01*
X14279985Y10012377D01*
X14313309Y9995716D02*
X14346631D01*
X14329970D01*
Y10095684D01*
X14313309Y10079023D01*
X14396616Y10012377D02*
X14413277Y9995716D01*
X14446597D01*
X14463260Y10012377D01*
Y10079023D01*
X14446597Y10095684D01*
X14413277D01*
X14396616Y10079023D01*
Y10062361D01*
X14413277Y10045700D01*
X14463260D01*
X13496954Y6891323D02*
X13480293Y6907984D01*
X13446971D01*
X13430310Y6891323D01*
Y6824677D01*
X13446971Y6808016D01*
X13480293D01*
X13496954Y6824677D01*
X13596922Y6808016D02*
X13530276D01*
X13596922Y6874661D01*
Y6891323D01*
X13580261Y6907984D01*
X13546939D01*
X13530276Y6891323D01*
X13696890Y6808016D02*
X13630244D01*
X13696890Y6874661D01*
Y6891323D01*
X13680229Y6907984D01*
X13646907D01*
X13630244Y6891323D01*
X12700816Y9850423D02*
X12684155Y9867084D01*
X12650832D01*
X12634171Y9850423D01*
Y9783777D01*
X12650832Y9767116D01*
X12684155D01*
X12700816Y9783777D01*
X12800784Y9767116D02*
X12734139D01*
X12800784Y9833761D01*
Y9850423D01*
X12784123Y9867084D01*
X12750800D01*
X12734139Y9850423D01*
X12834106Y9767116D02*
X12867429D01*
X12850768D01*
Y9867084D01*
X12834106Y9850423D01*
X15554355Y8948723D02*
X15537694Y8965384D01*
X15504372D01*
X15487711Y8948723D01*
Y8882077D01*
X15504372Y8865416D01*
X15537694D01*
X15554355Y8882077D01*
X15654323Y8865416D02*
X15587677D01*
X15654323Y8932061D01*
Y8948723D01*
X15637662Y8965384D01*
X15604340D01*
X15587677Y8948723D01*
X15687645D02*
X15704308Y8965384D01*
X15737630D01*
X15754289Y8948723D01*
Y8932061D01*
X15737630Y8915400D01*
X15720969D01*
X15737630D01*
X15754289Y8898739D01*
Y8882077D01*
X15737630Y8865416D01*
X15704308D01*
X15687645Y8882077D01*
X11609956Y8707423D02*
X11593295Y8724084D01*
X11559972D01*
X11543311Y8707423D01*
Y8640777D01*
X11559972Y8624116D01*
X11593295D01*
X11609956Y8640777D01*
X11709924Y8624116D02*
X11643279D01*
X11709924Y8690761D01*
Y8707423D01*
X11693263Y8724084D01*
X11659940D01*
X11643279Y8707423D01*
X11793230Y8624116D02*
Y8724084D01*
X11743247Y8674100D01*
X11809892D01*
X11909455Y8174023D02*
X11892794Y8190684D01*
X11859471D01*
X11842810Y8174023D01*
Y8107377D01*
X11859471Y8090716D01*
X11892794D01*
X11909455Y8107377D01*
X12009423Y8090716D02*
X11942777D01*
X12009423Y8157361D01*
Y8174023D01*
X11992761Y8190684D01*
X11959439D01*
X11942777Y8174023D01*
X12109390Y8190684D02*
X12042745D01*
Y8140700D01*
X12076068Y8157361D01*
X12092729D01*
X12109390Y8140700D01*
Y8107377D01*
X12092729Y8090716D01*
X12059407D01*
X12042745Y8107377D01*
X14927277Y6765955D02*
X14910616Y6749294D01*
Y6715971D01*
X14927277Y6699310D01*
X14993922D01*
X15010583Y6715971D01*
Y6749294D01*
X14993922Y6765955D01*
X15010583Y6865923D02*
Y6799277D01*
X14943938Y6865923D01*
X14927277D01*
X14910616Y6849261D01*
Y6815939D01*
X14927277Y6799277D01*
Y6899245D02*
X14910616Y6915907D01*
Y6949229D01*
X14927277Y6965890D01*
X14943938D01*
X14960599Y6949229D01*
X14977261Y6965890D01*
X14993922D01*
X15010583Y6949229D01*
Y6915907D01*
X14993922Y6899245D01*
X14977261D01*
X14960599Y6915907D01*
X14943938Y6899245D01*
X14927277D01*
X14960599Y6915907D02*
Y6949229D01*
X15732155Y9190023D02*
X15715494Y9206684D01*
X15682172D01*
X15665511Y9190023D01*
Y9123377D01*
X15682172Y9106716D01*
X15715494D01*
X15732155Y9123377D01*
X15832123Y9106716D02*
X15765477D01*
X15832123Y9173361D01*
Y9190023D01*
X15815462Y9206684D01*
X15782140D01*
X15765477Y9190023D01*
X15865445Y9123377D02*
X15882108Y9106716D01*
X15915430D01*
X15932091Y9123377D01*
Y9190023D01*
X15915430Y9206684D01*
X15882108D01*
X15865445Y9190023D01*
Y9173361D01*
X15882108Y9156700D01*
X15932091D01*
X12646055Y7107223D02*
X12629394Y7123884D01*
X12596071D01*
X12579410Y7107223D01*
Y7040577D01*
X12596071Y7023916D01*
X12629394D01*
X12646055Y7040577D01*
X12679377Y7107223D02*
X12696039Y7123884D01*
X12729361D01*
X12746023Y7107223D01*
Y7090561D01*
X12729361Y7073900D01*
X12712700D01*
X12729361D01*
X12746023Y7057239D01*
Y7040577D01*
X12729361Y7023916D01*
X12696039D01*
X12679377Y7040577D01*
X12779345Y7107223D02*
X12796007Y7123884D01*
X12829329D01*
X12845990Y7107223D01*
Y7040577D01*
X12829329Y7023916D01*
X12796007D01*
X12779345Y7040577D01*
Y7107223D01*
X13094516Y7450123D02*
X13077855Y7466784D01*
X13044531D01*
X13027872Y7450123D01*
Y7383477D01*
X13044531Y7366816D01*
X13077855D01*
X13094516Y7383477D01*
X13127840Y7450123D02*
X13144501Y7466784D01*
X13177823D01*
X13194484Y7450123D01*
Y7433461D01*
X13177823Y7416800D01*
X13161160D01*
X13177823D01*
X13194484Y7400139D01*
Y7383477D01*
X13177823Y7366816D01*
X13144501D01*
X13127840Y7383477D01*
X13227808Y7366816D02*
X13261130D01*
X13244469D01*
Y7466784D01*
X13227808Y7450123D01*
X13090555Y7577123D02*
X13073894Y7593784D01*
X13040572D01*
X13023911Y7577123D01*
Y7510477D01*
X13040572Y7493816D01*
X13073894D01*
X13090555Y7510477D01*
X13123877Y7577123D02*
X13140540Y7593784D01*
X13173862D01*
X13190523Y7577123D01*
Y7560461D01*
X13173862Y7543800D01*
X13157201D01*
X13173862D01*
X13190523Y7527139D01*
Y7510477D01*
X13173862Y7493816D01*
X13140540D01*
X13123877Y7510477D01*
X13290491Y7493816D02*
X13223845D01*
X13290491Y7560461D01*
Y7577123D01*
X13273830Y7593784D01*
X13240508D01*
X13223845Y7577123D01*
X16608455Y7606484D02*
Y7506516D01*
X16658440D01*
X16675101Y7523177D01*
Y7589823D01*
X16658440Y7606484D01*
X16608455D01*
X16708423Y7506516D02*
X16741745D01*
X16725084D01*
Y7606484D01*
X16708423Y7589823D01*
X16591794Y7111184D02*
Y7011216D01*
X16641777D01*
X16658440Y7027877D01*
Y7094523D01*
X16641777Y7111184D01*
X16591794D01*
X16758406Y7011216D02*
X16691760D01*
X16758406Y7077861D01*
Y7094523D01*
X16741745Y7111184D01*
X16708423D01*
X16691760Y7094523D01*
X13094516Y7339784D02*
X13027872D01*
Y7289800D01*
X13061194D01*
X13027872D01*
Y7239816D01*
X13127840Y7339784D02*
Y7239816D01*
X13177823D01*
X13194484Y7256477D01*
Y7273139D01*
X13177823Y7289800D01*
X13127840D01*
X13177823D01*
X13194484Y7306461D01*
Y7323123D01*
X13177823Y7339784D01*
X13127840D01*
X13227808Y7239816D02*
X13261130D01*
X13244469D01*
Y7339784D01*
X13227808Y7323123D01*
X17590315Y7410102D02*
Y7443424D01*
Y7426763D01*
X17690285D01*
Y7410102D01*
Y7443424D01*
X17606976Y7560053D02*
X17590315Y7543392D01*
Y7510070D01*
X17606976Y7493408D01*
X17673624D01*
X17690285Y7510070D01*
Y7543392D01*
X17673624Y7560053D01*
X17690285Y7593376D02*
Y7626698D01*
Y7610037D01*
X17590315D01*
X17606976Y7593376D01*
X12511540Y9638484D02*
X12544863D01*
X12528202D01*
Y9538516D01*
X12511540D01*
X12544863D01*
X12661492Y9621823D02*
X12644831Y9638484D01*
X12611508D01*
X12594847Y9621823D01*
Y9555177D01*
X12611508Y9538516D01*
X12644831D01*
X12661492Y9555177D01*
X12761460Y9538516D02*
X12694815D01*
X12761460Y9605161D01*
Y9621823D01*
X12744798Y9638484D01*
X12711476D01*
X12694815Y9621823D01*
X15985339Y10629084D02*
X15952016D01*
X15968677D01*
Y10545777D01*
X15952016Y10529116D01*
X15935355D01*
X15918694Y10545777D01*
X16085306Y10529116D02*
X16018661D01*
X16085306Y10595761D01*
Y10612423D01*
X16068645Y10629084D01*
X16035323D01*
X16018661Y10612423D01*
X16429839Y6438084D02*
X16396516D01*
X16413177D01*
Y6354777D01*
X16396516Y6338116D01*
X16379855D01*
X16363194Y6354777D01*
X16463161Y6421423D02*
X16479823Y6438084D01*
X16513145D01*
X16529807Y6421423D01*
Y6404761D01*
X16513145Y6388100D01*
X16496484D01*
X16513145D01*
X16529807Y6371439D01*
Y6354777D01*
X16513145Y6338116D01*
X16479823D01*
X16463161Y6354777D01*
X15566238Y6438084D02*
X15532916D01*
X15549577D01*
Y6354777D01*
X15532916Y6338116D01*
X15516255D01*
X15499594Y6354777D01*
X15666206Y6438084D02*
X15599561D01*
Y6388100D01*
X15632884Y6404761D01*
X15649545D01*
X15666206Y6388100D01*
Y6354777D01*
X15649545Y6338116D01*
X15616223D01*
X15599561Y6354777D01*
X17082317Y7935987D02*
X17182285D01*
Y8002632D01*
X17082317Y8102600D02*
Y8035955D01*
X17182285D01*
Y8102600D01*
X17132300Y8035955D02*
Y8069277D01*
X17082317Y8135923D02*
X17182285D01*
Y8185907D01*
X17165623Y8202568D01*
X17098978D01*
X17082317Y8185907D01*
Y8135923D01*
X17182285Y8235891D02*
Y8269213D01*
Y8252552D01*
X17082317D01*
X17098978Y8235891D01*
X13281871Y6438084D02*
X13265210Y6454745D01*
X13231886D01*
X13215227Y6438084D01*
Y6371439D01*
X13231886Y6354777D01*
X13265210D01*
X13281871Y6371439D01*
X13315195Y6454745D02*
Y6354777D01*
Y6404761D01*
X13331854Y6421423D01*
X13365176D01*
X13381839Y6404761D01*
Y6354777D01*
X13415161Y6421423D02*
Y6354777D01*
Y6388100D01*
X13431824Y6404761D01*
X13448483Y6421423D01*
X13465144D01*
X13548453Y6321455D02*
X13565112D01*
X13581773Y6338116D01*
Y6421423D01*
X13531792D01*
X13515129Y6404761D01*
Y6371439D01*
X13531792Y6354777D01*
X13581773D01*
X14911839Y6350816D02*
Y6450784D01*
X14961824D01*
X14978485Y6434123D01*
Y6400800D01*
X14961824Y6384139D01*
X14911839D01*
X15011807Y6417461D02*
Y6367477D01*
X15028470Y6350816D01*
X15045131Y6367477D01*
X15061792Y6350816D01*
X15078453Y6367477D01*
Y6417461D01*
X15111777D02*
Y6350816D01*
Y6384139D01*
X15128436Y6400800D01*
X15145097Y6417461D01*
X15161760D01*
X16443355Y7646216D02*
Y7746184D01*
X16493340D01*
X16510001Y7729523D01*
Y7696200D01*
X16493340Y7679539D01*
X16443355D01*
X16476677D02*
X16510001Y7646216D01*
X16543323D02*
X16576645D01*
X16559984D01*
Y7746184D01*
X16543323Y7729523D01*
X16134595Y8713016D02*
Y8812984D01*
X16184576D01*
X16201239Y8796323D01*
Y8763000D01*
X16184576Y8746339D01*
X16134595D01*
X16167915D02*
X16201239Y8713016D01*
X16301205D02*
X16234561D01*
X16301205Y8779661D01*
Y8796323D01*
X16284544Y8812984D01*
X16251224D01*
X16234561Y8796323D01*
X15804395Y7824016D02*
Y7923984D01*
X15854378D01*
X15871039Y7907323D01*
Y7874000D01*
X15854378Y7857339D01*
X15804395D01*
X15837717D02*
X15871039Y7824016D01*
X15904361Y7907323D02*
X15921024Y7923984D01*
X15954346D01*
X15971005Y7907323D01*
Y7890661D01*
X15954346Y7874000D01*
X15937685D01*
X15954346D01*
X15971005Y7857339D01*
Y7840677D01*
X15954346Y7824016D01*
X15921024D01*
X15904361Y7840677D01*
X15766293Y8065316D02*
Y8165284D01*
X15816277D01*
X15832939Y8148623D01*
Y8115300D01*
X15816277Y8098639D01*
X15766293D01*
X15799615D02*
X15832939Y8065316D01*
X15916245D02*
Y8165284D01*
X15866261Y8115300D01*
X15932906D01*
X15804395Y8332016D02*
Y8431984D01*
X15854378D01*
X15871039Y8415323D01*
Y8382000D01*
X15854378Y8365339D01*
X15804395D01*
X15837717D02*
X15871039Y8332016D01*
X15971005Y8431984D02*
X15904361D01*
Y8382000D01*
X15937685Y8398661D01*
X15954346D01*
X15971005Y8382000D01*
Y8348677D01*
X15954346Y8332016D01*
X15921024D01*
X15904361Y8348677D01*
X16642593Y8738416D02*
Y8838384D01*
X16692577D01*
X16709239Y8821723D01*
Y8788400D01*
X16692577Y8771739D01*
X16642593D01*
X16675916D02*
X16709239Y8738416D01*
X16809206Y8838384D02*
X16775883Y8821723D01*
X16742561Y8788400D01*
Y8755077D01*
X16759222Y8738416D01*
X16792545D01*
X16809206Y8755077D01*
Y8771739D01*
X16792545Y8788400D01*
X16742561D01*
X16883894Y8789216D02*
Y8889184D01*
X16933878D01*
X16950539Y8872523D01*
Y8839200D01*
X16933878Y8822539D01*
X16883894D01*
X16917216D02*
X16950539Y8789216D01*
X16983861Y8889184D02*
X17050507D01*
Y8872523D01*
X16983861Y8805877D01*
Y8789216D01*
X12146794Y6338116D02*
Y6438084D01*
X12196777D01*
X12213439Y6421423D01*
Y6388100D01*
X12196777Y6371439D01*
X12146794D01*
X12180116D02*
X12213439Y6338116D01*
X12246761Y6421423D02*
X12263423Y6438084D01*
X12296745D01*
X12313406Y6421423D01*
Y6404761D01*
X12296745Y6388100D01*
X12313406Y6371439D01*
Y6354777D01*
X12296745Y6338116D01*
X12263423D01*
X12246761Y6354777D01*
Y6371439D01*
X12263423Y6388100D01*
X12246761Y6404761D01*
Y6421423D01*
X12263423Y6388100D02*
X12296745D01*
X12489694Y6388916D02*
Y6488884D01*
X12539677D01*
X12556339Y6472223D01*
Y6438900D01*
X12539677Y6422239D01*
X12489694D01*
X12523016D02*
X12556339Y6388916D01*
X12589661Y6405577D02*
X12606323Y6388916D01*
X12639645D01*
X12656306Y6405577D01*
Y6472223D01*
X12639645Y6488884D01*
X12606323D01*
X12589661Y6472223D01*
Y6455561D01*
X12606323Y6438900D01*
X12656306D01*
X14572902Y10541816D02*
Y10641784D01*
X14622887D01*
X14639548Y10625123D01*
Y10591800D01*
X14622887Y10575139D01*
X14572902D01*
X14606224D02*
X14639548Y10541816D01*
X14672870D02*
X14706192D01*
X14689531D01*
Y10641784D01*
X14672870Y10625123D01*
X14756177Y10541816D02*
X14789497D01*
X14772836D01*
Y10641784D01*
X14756177Y10625123D01*
X12460740Y10554516D02*
Y10654484D01*
X12510724D01*
X12527385Y10637823D01*
Y10604500D01*
X12510724Y10587839D01*
X12460740D01*
X12494063D02*
X12527385Y10554516D01*
X12560708D02*
X12594031D01*
X12577370D01*
Y10654484D01*
X12560708Y10637823D01*
X12644015D02*
X12660676Y10654484D01*
X12693998D01*
X12710660Y10637823D01*
Y10571177D01*
X12693998Y10554516D01*
X12660676D01*
X12644015Y10571177D01*
Y10637823D01*
X15254739Y10554516D02*
Y10654484D01*
X15304724D01*
X15321385Y10637823D01*
Y10604500D01*
X15304724Y10587839D01*
X15254739D01*
X15288063D02*
X15321385Y10554516D01*
X15354707D02*
X15388031D01*
X15371370D01*
Y10654484D01*
X15354707Y10637823D01*
X15504660Y10554516D02*
X15438016D01*
X15504660Y10621161D01*
Y10637823D01*
X15487997Y10654484D01*
X15454675D01*
X15438016Y10637823D01*
X13425940Y9957616D02*
Y10057584D01*
X13475925D01*
X13492586Y10040923D01*
Y10007600D01*
X13475925Y9990939D01*
X13425940D01*
X13459264D02*
X13492586Y9957616D01*
X13525908D02*
X13559232D01*
X13542570D01*
Y10057584D01*
X13525908Y10040923D01*
X13609215D02*
X13625876Y10057584D01*
X13659198D01*
X13675861Y10040923D01*
Y10024261D01*
X13659198Y10007600D01*
X13675861Y9990939D01*
Y9974277D01*
X13659198Y9957616D01*
X13625876D01*
X13609215Y9974277D01*
Y9990939D01*
X13625876Y10007600D01*
X13609215Y10024261D01*
Y10040923D01*
X13625876Y10007600D02*
X13659198D01*
X14264140Y10541816D02*
Y10641784D01*
X14314124D01*
X14330785Y10625123D01*
Y10591800D01*
X14314124Y10575139D01*
X14264140D01*
X14297462D02*
X14330785Y10541816D01*
X14364108D02*
X14397430D01*
X14380769D01*
Y10641784D01*
X14364108Y10625123D01*
X14497398Y10541816D02*
Y10641784D01*
X14447415Y10591800D01*
X14514059D01*
X13735110Y6769916D02*
Y6869884D01*
X13785094D01*
X13801755Y6853223D01*
Y6819900D01*
X13785094Y6803239D01*
X13735110D01*
X13768433D02*
X13801755Y6769916D01*
X13901723D02*
X13835077D01*
X13901723Y6836561D01*
Y6853223D01*
X13885062Y6869884D01*
X13851740D01*
X13835077Y6853223D01*
X14001691Y6769916D02*
X13935045D01*
X14001691Y6836561D01*
Y6853223D01*
X13985030Y6869884D01*
X13951707D01*
X13935045Y6853223D01*
X11709400Y8174023D02*
X11692739Y8190684D01*
X11659416D01*
X11642755Y8174023D01*
Y8157361D01*
X11659416Y8140700D01*
X11692739D01*
X11709400Y8124039D01*
Y8107377D01*
X11692739Y8090716D01*
X11659416D01*
X11642755Y8107377D01*
X11742723Y8090716D02*
X11776045D01*
X11759384D01*
Y8190684D01*
X11742723Y8174023D01*
X13080775Y9671125D02*
Y9587818D01*
X13097437Y9571157D01*
X13130759D01*
X13147420Y9587818D01*
Y9671125D01*
X13180743Y9571157D02*
X13214066D01*
X13197404D01*
Y9671125D01*
X13180743Y9654463D01*
X11765794Y10679884D02*
Y10596577D01*
X11782455Y10579916D01*
X11815777D01*
X11832439Y10596577D01*
Y10679884D01*
X11932406Y10579916D02*
X11865761D01*
X11932406Y10646561D01*
Y10663223D01*
X11915745Y10679884D01*
X11882423D01*
X11865761Y10663223D01*
X12646055Y8406584D02*
Y8389923D01*
X12679377Y8356600D01*
X12712700Y8389923D01*
Y8406584D01*
X12679377Y8356600D02*
Y8306616D01*
X12746023D02*
X12779345D01*
X12762684D01*
Y8406584D01*
X12746023Y8389923D01*
X13267538Y9974277D02*
X13250877Y9957616D01*
X13217555D01*
X13200894Y9974277D01*
Y10040922D01*
X13217555Y10057583D01*
X13250877D01*
X13267538Y10040922D01*
X13300861Y9974277D02*
X13317523Y9957616D01*
X13350845D01*
X13367506Y9974277D01*
Y9990938D01*
X13350845Y10007599D01*
X13367506Y10024261D01*
Y10040922D01*
X13350845Y10057583D01*
X13317523D01*
X13300861Y10040922D01*
Y10024261D01*
X13317523Y10007599D01*
X13300861Y9990938D01*
Y9974277D01*
X13317523Y10007599D02*
X13350845D01*
X15118185Y10104423D02*
X15101524Y10121084D01*
X15068202D01*
X15051540Y10104423D01*
Y10037777D01*
X15068202Y10021116D01*
X15101524D01*
X15118185Y10037777D01*
X15151508Y10021116D02*
X15184831D01*
X15168170D01*
Y10121084D01*
X15151508Y10104423D01*
X15234814D02*
X15251476Y10121084D01*
X15284798D01*
X15301460Y10104423D01*
Y10087761D01*
X15284798Y10071100D01*
X15268137D01*
X15284798D01*
X15301460Y10054439D01*
Y10037777D01*
X15284798Y10021116D01*
X15251476D01*
X15234814Y10037777D01*
X12788675Y9209963D02*
X12772014Y9226625D01*
X12738691D01*
X12722030Y9209963D01*
Y9143318D01*
X12738691Y9126657D01*
X12772014D01*
X12788675Y9143318D01*
X12888641Y9126657D02*
X12821997D01*
X12888641Y9193302D01*
Y9209963D01*
X12871980Y9226625D01*
X12838660D01*
X12821997Y9209963D01*
X12921965D02*
X12938628Y9226625D01*
X12971948D01*
X12988609Y9209963D01*
Y9143318D01*
X12971948Y9126657D01*
X12938628D01*
X12921965Y9143318D01*
Y9209963D01*
X14533577Y6791355D02*
X14516916Y6774694D01*
Y6741371D01*
X14533577Y6724710D01*
X14600221D01*
X14616882Y6741371D01*
Y6774694D01*
X14600221Y6791355D01*
X14616882Y6891323D02*
Y6824677D01*
X14550238Y6891323D01*
X14533577D01*
X14516916Y6874661D01*
Y6841339D01*
X14533577Y6824677D01*
X14516916Y6991290D02*
X14533577Y6957968D01*
X14566899Y6924645D01*
X14600221D01*
X14616882Y6941307D01*
Y6974629D01*
X14600221Y6991290D01*
X14583562D01*
X14566899Y6974629D01*
Y6924645D01*
X15972639Y6438084D02*
X15939316D01*
X15955977D01*
Y6354777D01*
X15939316Y6338116D01*
X15922655D01*
X15905994Y6354777D01*
X16072606Y6438084D02*
X16039284Y6421423D01*
X16005962Y6388100D01*
Y6354777D01*
X16022623Y6338116D01*
X16055945D01*
X16072606Y6354777D01*
Y6371439D01*
X16055945Y6388100D01*
X16005962D01*
X12752840Y10554516D02*
Y10654484D01*
X12802824D01*
X12819485Y10637823D01*
Y10604500D01*
X12802824Y10587839D01*
X12752840D01*
X12786163D02*
X12819485Y10554516D01*
X12852808D02*
X12886131D01*
X12869470D01*
Y10654484D01*
X12852808Y10637823D01*
X12936115D02*
X12952776Y10654484D01*
X12986098D01*
X13002760Y10637823D01*
Y10621161D01*
X12986098Y10604500D01*
X12969437D01*
X12986098D01*
X13002760Y10587839D01*
Y10571177D01*
X12986098Y10554516D01*
X12952776D01*
X12936115Y10571177D01*
X13959340Y10541816D02*
Y10641784D01*
X14009325D01*
X14025986Y10625123D01*
Y10591800D01*
X14009325Y10575139D01*
X13959340D01*
X13992664D02*
X14025986Y10541816D01*
X14059308D02*
X14092632D01*
X14075970D01*
Y10641784D01*
X14059308Y10625123D01*
X14209261Y10641784D02*
X14142615D01*
Y10591800D01*
X14175937Y10608461D01*
X14192598D01*
X14209261Y10591800D01*
Y10558477D01*
X14192598Y10541816D01*
X14159276D01*
X14142615Y10558477D01*
X13768840Y9957616D02*
Y10057584D01*
X13818823D01*
X13835484Y10040923D01*
Y10007600D01*
X13818823Y9990939D01*
X13768840D01*
X13802164D02*
X13835484Y9957616D01*
X13868808D02*
X13902132D01*
X13885471D01*
Y10057584D01*
X13868808Y10040923D01*
X14018761Y10057584D02*
X13985437Y10040923D01*
X13952115Y10007600D01*
Y9974277D01*
X13968776Y9957616D01*
X14002098D01*
X14018761Y9974277D01*
Y9990939D01*
X14002098Y10007600D01*
X13952115D01*
X12321040Y10046516D02*
Y10146484D01*
X12371024D01*
X12387685Y10129823D01*
Y10096500D01*
X12371024Y10079839D01*
X12321040D01*
X12354363D02*
X12387685Y10046516D01*
X12421008D02*
X12454331D01*
X12437670D01*
Y10146484D01*
X12421008Y10129823D01*
X12504315Y10146484D02*
X12570960D01*
Y10129823D01*
X12504315Y10063177D01*
Y10046516D01*
X13349741Y10554516D02*
Y10654484D01*
X13399724D01*
X13416385Y10637823D01*
Y10604500D01*
X13399724Y10587839D01*
X13349741D01*
X13383063D02*
X13416385Y10554516D01*
X13449709D02*
X13483031D01*
X13466370D01*
Y10654484D01*
X13449709Y10637823D01*
X13533015Y10571177D02*
X13549677Y10554516D01*
X13582999D01*
X13599660Y10571177D01*
Y10637823D01*
X13582999Y10654484D01*
X13549677D01*
X13533015Y10637823D01*
Y10621161D01*
X13549677Y10604500D01*
X13599660D01*
X12278571Y8903516D02*
Y9003484D01*
X12328555D01*
X12345216Y8986823D01*
Y8953500D01*
X12328555Y8936839D01*
X12278571D01*
X12311894D02*
X12345216Y8903516D01*
X12445184D02*
X12378539D01*
X12445184Y8970161D01*
Y8986823D01*
X12428523Y9003484D01*
X12395200D01*
X12378539Y8986823D01*
X12478507Y8903516D02*
X12511829D01*
X12495168D01*
Y9003484D01*
X12478507Y8986823D01*
X14451784Y6673910D02*
X14351816D01*
Y6723894D01*
X14368477Y6740555D01*
X14401799D01*
X14418462Y6723894D01*
Y6673910D01*
Y6707232D02*
X14451784Y6740555D01*
Y6840523D02*
Y6773877D01*
X14385138Y6840523D01*
X14368477D01*
X14351816Y6823861D01*
Y6790539D01*
X14368477Y6773877D01*
Y6873845D02*
X14351816Y6890507D01*
Y6923829D01*
X14368477Y6940490D01*
X14385138D01*
X14401799Y6923829D01*
Y6907168D01*
Y6923829D01*
X14418462Y6940490D01*
X14435123D01*
X14451784Y6923829D01*
Y6890507D01*
X14435123Y6873845D01*
X11587177Y8987638D02*
X11570516Y8970977D01*
Y8937655D01*
X11587177Y8920993D01*
X11603839D01*
X11620500Y8937655D01*
Y8970977D01*
X11637161Y8987638D01*
X11653822D01*
X11670484Y8970977D01*
Y8937655D01*
X11653822Y8920993D01*
X11670484Y9087606D02*
Y9020961D01*
X11603839Y9087606D01*
X11587177D01*
X11570516Y9070945D01*
Y9037623D01*
X11587177Y9020961D01*
X15626595Y10667184D02*
Y10583877D01*
X15643256Y10567216D01*
X15676578D01*
X15693239Y10583877D01*
Y10667184D01*
X15776546Y10567216D02*
Y10667184D01*
X15726561Y10617200D01*
X15793205D01*
X17551401Y8254184D02*
X17518077D01*
X17534740D01*
Y8170877D01*
X17518077Y8154216D01*
X17501416D01*
X17484755Y8170877D01*
X17584723Y8154216D02*
X17618045D01*
X17601384D01*
Y8254184D01*
X17584723Y8237523D01*
X13708894Y10679884D02*
Y10596577D01*
X13725555Y10579916D01*
X13758878D01*
X13775539Y10596577D01*
Y10679884D01*
X13808861Y10663223D02*
X13825523Y10679884D01*
X13858846D01*
X13875507Y10663223D01*
Y10646561D01*
X13858846Y10629900D01*
X13842184D01*
X13858846D01*
X13875507Y10613239D01*
Y10596577D01*
X13858846Y10579916D01*
X13825523D01*
X13808861Y10596577D01*
X11749540Y6412684D02*
X11782863D01*
X11766202D01*
Y6312716D01*
X11749540D01*
X11782863D01*
X11899492Y6396023D02*
X11882831Y6412684D01*
X11849508D01*
X11832847Y6396023D01*
Y6329377D01*
X11849508Y6312716D01*
X11882831D01*
X11899492Y6329377D01*
X11932815Y6396023D02*
X11949476Y6412684D01*
X11982798D01*
X11999460Y6396023D01*
Y6379361D01*
X11982798Y6362700D01*
X11966137D01*
X11982798D01*
X11999460Y6346039D01*
Y6329377D01*
X11982798Y6312716D01*
X11949476D01*
X11932815Y6329377D01*
X14157355Y6438084D02*
X14140694Y6454745D01*
X14107372D01*
X14090710Y6438084D01*
Y6371439D01*
X14107372Y6354777D01*
X14140694D01*
X14157355Y6371439D01*
X14190677Y6354777D02*
Y6421423D01*
X14207339D01*
X14224001Y6404761D01*
Y6354777D01*
Y6404761D01*
X14240662Y6421423D01*
X14257323Y6404761D01*
Y6354777D01*
X14290645Y6321455D02*
Y6421423D01*
X14340630D01*
X14357291Y6404761D01*
Y6371439D01*
X14340630Y6354777D01*
X14290645D01*
X12833411Y6388916D02*
Y6488884D01*
X12883394D01*
X12900055Y6472223D01*
Y6438900D01*
X12883394Y6422239D01*
X12833411D01*
X12866731D02*
X12900055Y6388916D01*
X13000023D02*
X12933377D01*
X13000023Y6455561D01*
Y6472223D01*
X12983360Y6488884D01*
X12950040D01*
X12933377Y6472223D01*
X13083328Y6388916D02*
Y6488884D01*
X13033345Y6438900D01*
X13099989D01*
X13684309Y6350816D02*
Y6450784D01*
X13734294D01*
X13750955Y6434123D01*
Y6400800D01*
X13734294Y6384139D01*
X13684309D01*
X13717632D02*
X13750955Y6350816D01*
X13850923D02*
X13784277D01*
X13850923Y6417461D01*
Y6434123D01*
X13834261Y6450784D01*
X13800938D01*
X13784277Y6434123D01*
X13950890Y6450784D02*
X13884245D01*
Y6400800D01*
X13917567Y6417461D01*
X13934229D01*
X13950890Y6400800D01*
Y6367477D01*
X13934229Y6350816D01*
X13900906D01*
X13884245Y6367477D01*
X14497110Y6350816D02*
Y6450784D01*
X14547095D01*
X14563754Y6434123D01*
Y6400800D01*
X14547095Y6384139D01*
X14497110D01*
X14530432D02*
X14563754Y6350816D01*
X14663724D02*
X14597076D01*
X14663724Y6417461D01*
Y6434123D01*
X14647061Y6450784D01*
X14613739D01*
X14597076Y6434123D01*
X14763690Y6450784D02*
X14730368Y6434123D01*
X14697044Y6400800D01*
Y6367477D01*
X14713707Y6350816D01*
X14747029D01*
X14763690Y6367477D01*
Y6384139D01*
X14747029Y6400800D01*
X14697044D01*
X12100771Y7354116D02*
Y7454084D01*
X12150755D01*
X12167416Y7437423D01*
Y7404100D01*
X12150755Y7387439D01*
X12100771D01*
X12134094D02*
X12167416Y7354116D01*
X12200739Y7454084D02*
X12267384D01*
X12234061D01*
Y7354116D01*
X12300707D02*
X12334029D01*
X12317368D01*
Y7454084D01*
X12300707Y7437423D01*
D66*
X16840100Y7788000D02*
G03*
X16840100Y7798000I0J5000D01*
G01*
D02*
G03*
X16840100Y7788000I0J-5000D01*
G01*
D02*
G03*
X16840100Y7798000I0J5000D01*
G01*
X16000999Y9902800D02*
G03*
X16000999Y9922800I0J10000D01*
G01*
D02*
G03*
X16000999Y9902800I0J-10000D01*
G01*
X15907201Y10200500D02*
G03*
X15907201Y10200500I-10000J0D01*
G01*
X12071800D02*
G03*
X12071800Y10200500I-10000J0D01*
G01*
X13989500D02*
G03*
X13989500Y10200500I-10000J0D01*
G01*
X17692599Y8761400D02*
Y8771400D01*
X17562601Y8761400D02*
Y8771400D01*
X15978101Y8872300D02*
Y8882300D01*
X15848100Y8872300D02*
Y8882300D01*
X13235701Y6696299D02*
X13505704D01*
X13235701Y6486301D02*
Y6696299D01*
Y6486301D02*
X13505704D01*
X15608299Y7392101D02*
X15708299D01*
Y8232099D01*
X15508299D02*
X15708299D01*
X15508299Y7512101D02*
Y8232099D01*
X12139498Y7175500D02*
X12244502D01*
X12421301Y6796100D02*
Y6896100D01*
Y6796100D02*
X13261299D01*
Y6996100D01*
X12541301D02*
X13261299D01*
X13298997Y7603200D02*
Y9453204D01*
Y7603200D02*
X15149002D01*
Y9453204D01*
X13298997D02*
X15149002D01*
X16466302Y6478600D02*
Y6578600D01*
Y6478600D02*
X17706299D01*
Y6678600D01*
X16586302D02*
X17706299D01*
X16814001Y7411598D02*
X17043999D01*
X16814001Y6761602D02*
Y7411598D01*
Y6761602D02*
X17043999D01*
X15570200Y7268098D02*
X15805202D01*
Y6528100D02*
Y7268098D01*
X15230202Y6528100D02*
X15805202D01*
X15230202D02*
Y7023100D01*
X13806001Y6513601D02*
X13816000D01*
X13806001Y6643599D02*
X13816000D01*
X14042400Y6683599D02*
X14312402D01*
X14042400Y6473601D02*
Y6683599D01*
Y6473601D02*
X14312402D01*
X14855200Y6683599D02*
X15125201D01*
X14855200Y6473601D02*
Y6683599D01*
Y6473601D02*
X15125201D01*
X12996600Y6526301D02*
X13006598D01*
X12996600Y6656299D02*
X13006598D01*
X14618802Y6513601D02*
X14628799D01*
X14618802Y6643599D02*
X14628799D01*
X13888802Y9926701D02*
X13898804D01*
X13888802Y9796704D02*
X13898804D01*
X13457001Y9926701D02*
X13466998D01*
X13457001Y9796704D02*
X13466998D01*
X12796596Y8729904D02*
X12806599D01*
X12796596Y8859901D02*
X12806599D01*
X13752602Y7100804D02*
Y7110801D01*
X13882599Y7100804D02*
Y7110801D01*
X14327100Y7100804D02*
Y7110801D01*
X14197096Y7100804D02*
Y7110801D01*
X12623592Y7165792D02*
X12954208D01*
X12623592Y7401413D02*
X12954208D01*
X12460199Y10332796D02*
Y10342794D01*
X12330201Y10332796D02*
Y10342794D01*
X15457399Y10345496D02*
Y10355499D01*
X15327402Y10345496D02*
Y10355499D01*
X14162000Y10345500D02*
Y10355497D01*
X14032001Y10345500D02*
Y10355497D01*
X12568001Y6656299D02*
X12578004D01*
X12568001Y6526301D02*
X12578004D01*
X13028700Y10332796D02*
Y10342799D01*
X13158699Y10332796D02*
Y10342799D01*
X12688799Y10332796D02*
Y10342799D01*
X12558801Y10332796D02*
Y10342799D01*
X16395598Y7459198D02*
Y7499198D01*
X16573602Y7459198D02*
Y7499198D01*
Y6866900D02*
Y6906900D01*
X16395598Y6866900D02*
Y6906900D01*
X11710203Y9879101D02*
X11857700D01*
X11892702Y9376598D02*
Y9876602D01*
Y9376598D02*
X12262698D01*
Y9876602D01*
X11892702D02*
X12262698D01*
X16411198Y8207599D02*
X16681201D01*
X16411198Y7997601D02*
Y8207599D01*
Y7997601D02*
X16681201D01*
X16593901Y7783601D02*
X16603899D01*
X16593901Y7913599D02*
X16603899D01*
X16158704Y8545601D02*
X16168700D01*
X16158704Y8675599D02*
X16168700D01*
X16158704Y7926299D02*
X16168700D01*
X16158704Y7796301D02*
X16168700D01*
X16158704Y8180299D02*
X16168700D01*
X16158704Y8050301D02*
X16168700D01*
X16158704Y8421599D02*
X16168700D01*
X16158704Y8291601D02*
X16168700D01*
X16593901Y8675599D02*
X16603905D01*
X16593901Y8545601D02*
X16603905D01*
X16593901Y8291601D02*
X16603905D01*
X16593901Y8421599D02*
X16603905D01*
X12282399Y6725996D02*
Y6735999D01*
X12152401Y6725996D02*
Y6735999D01*
X14527296Y10345501D02*
Y10355504D01*
X14657298Y10345501D02*
Y10355504D01*
X14273302Y10345496D02*
Y10355499D01*
X14403299Y10345496D02*
Y10355499D01*
X16052800Y6677101D02*
X16352798D01*
Y6480099D02*
Y6677101D01*
X15952800Y6480099D02*
X16352798D01*
X15952800D02*
Y6578600D01*
X12787401Y10332796D02*
Y10342794D01*
X12917400Y10332796D02*
Y10342794D01*
X13387305Y10332796D02*
Y10342799D01*
X13257301Y10332796D02*
Y10342799D01*
D67*
X13409000Y9368200D02*
G03*
X13409000Y9368200I-25000J0D01*
G01*
D68*
X13168951Y9474200D02*
G03*
X13168951Y9474200I-12500J0D01*
G01*
X16641501Y7416600D02*
G03*
X16641501Y7416600I-12500J0D01*
G01*
X12052000Y6948900D02*
G03*
X12052000Y6948900I-12500J0D01*
G01*
D69*
X12530600Y8652000D02*
G03*
X12520600Y8652000I-5000J0D01*
G01*
D02*
G03*
X12530600Y8652000I5000J0D01*
G01*
X17160098Y7677998D02*
Y7681001D01*
Y7677998D02*
X17235098D01*
Y7681001D01*
X17160098D02*
X17235098D01*
X17560101D02*
X17677802D01*
X17560101D02*
X17677802D01*
Y8574999D01*
Y7681001D02*
Y8574999D01*
X17535098D02*
X17677802D01*
X17535098D02*
X17677802D01*
X17135098D02*
X17235098D01*
X17135098D02*
X17235098D01*
X17388499Y8950305D02*
X17663499D01*
Y10455300D01*
X17388499D02*
X17663499D01*
X16488496Y8950305D02*
X17031000D01*
X16488496Y10455300D02*
X17031000D01*
X16188496Y9982805D02*
Y10402804D01*
D70*
X15852200Y10157501D02*
Y10543499D01*
X15542200D02*
X15852200D01*
X15542200Y10157501D02*
Y10543499D01*
Y10157501D02*
X15852200D01*
X11706799D02*
X12016801D01*
X11706799D02*
Y10543499D01*
X12016801D01*
Y10157501D02*
Y10543499D01*
X13624504Y10157501D02*
X13934502D01*
X13624504D02*
Y10543499D01*
X13934502D01*
Y10157501D02*
Y10543499D01*
%TF.MD5,8ac506b4e2a43df0c0f870d7e05f68a3*%
M02*
