%TF.GenerationSoftware,Altium Limited,Altium Designer,21.9.2 (33)*%
G04 Layer_Color=8388736*
%FSLAX45Y45*%
%MOMM*%
%TF.SameCoordinates,8C9FB855-A7A5-4AEE-82B0-D85B10D48A85*%
%TF.FilePolarity,Negative*%
%TF.FileFunction,Soldermask,Top*%
%TF.Part,Single*%
G01*
G75*
%TA.AperFunction,SMDPad,CuDef*%
%ADD19R,0.25000X0.25000*%
G04:AMPARAMS|DCode=23|XSize=0.31247mm|YSize=1.95524mm|CornerRadius=0.15624mm|HoleSize=0mm|Usage=FLASHONLY|Rotation=0.000|XOffset=0mm|YOffset=0mm|HoleType=Round|Shape=RoundedRectangle|*
%AMROUNDEDRECTD23*
21,1,0.31247,1.64277,0,0,0.0*
21,1,0.00000,1.95524,0,0,0.0*
1,1,0.31247,0.00000,-0.82138*
1,1,0.31247,0.00000,-0.82138*
1,1,0.31247,0.00000,0.82138*
1,1,0.31247,0.00000,0.82138*
%
%ADD23ROUNDEDRECTD23*%
G04:AMPARAMS|DCode=24|XSize=1.95524mm|YSize=0.31247mm|CornerRadius=0.15624mm|HoleSize=0mm|Usage=FLASHONLY|Rotation=0.000|XOffset=0mm|YOffset=0mm|HoleType=Round|Shape=RoundedRectangle|*
%AMROUNDEDRECTD24*
21,1,1.95524,0.00000,0,0,0.0*
21,1,1.64277,0.31247,0,0,0.0*
1,1,0.31247,0.82138,0.00000*
1,1,0.31247,-0.82138,0.00000*
1,1,0.31247,-0.82138,0.00000*
1,1,0.31247,0.82138,0.00000*
%
%ADD24ROUNDEDRECTD24*%
%ADD25R,1.95524X0.31247*%
%ADD32R,1.45490X1.55620*%
%TA.AperFunction,ComponentPad*%
%ADD56C,0.47500*%
%ADD57C,0.62500*%
%ADD58R,1.50000X1.50000*%
%ADD59C,1.50000*%
%ADD60R,1.50000X1.50000*%
%ADD61C,0.15000*%
%ADD62C,1.42500*%
%ADD63R,1.42500X1.42500*%
%TA.AperFunction,ViaPad*%
%ADD64C,0.75000*%
%ADD65C,3.75000*%
%TA.AperFunction,NonConductor*%
%ADD71C,0.32000*%
%TA.AperFunction,SMDPad,CuDef*%
%ADD72R,1.65000X1.35000*%
%TA.AperFunction,ConnectorPad*%
%ADD73R,1.30000X0.45000*%
%ADD74R,2.15000X2.33000*%
%ADD75R,1.55000X0.77000*%
%ADD76R,2.55000X1.25000*%
%TA.AperFunction,SMDPad,CuDef*%
%ADD77R,1.05000X1.55000*%
%ADD78R,1.25000X1.50000*%
%ADD79R,1.60000X0.90000*%
%ADD80C,0.87300*%
%ADD81C,0.71200*%
%ADD82C,0.76200*%
%ADD83R,1.50000X1.25000*%
%ADD84R,6.50000X5.70000*%
%ADD85R,1.90000X1.15000*%
%ADD86R,1.35000X1.65000*%
%ADD87R,1.70000X1.45000*%
%ADD88R,1.60000X1.20000*%
%ADD89R,1.35000X1.55000*%
%ADD90R,2.60000X1.85000*%
%ADD91R,0.45000X1.00000*%
%ADD92R,1.55000X1.05000*%
%ADD93R,1.55000X2.35000*%
%ADD94R,1.62500X0.60000*%
D19*
X15650200Y10424500D02*
D03*
X11814800D02*
D03*
X13732504D02*
D03*
D23*
X13349001Y9595749D02*
D03*
X13398997D02*
D03*
X13449001D02*
D03*
X13498997D02*
D03*
X13549001D02*
D03*
X13599004D02*
D03*
X13649001D02*
D03*
X13699002D02*
D03*
X13749001D02*
D03*
X13799002D02*
D03*
X13848999D02*
D03*
X13899002D02*
D03*
X13948999D02*
D03*
X13999002D02*
D03*
X14048999D02*
D03*
X14099002D02*
D03*
X14148999D02*
D03*
X14199001D02*
D03*
X14248999D02*
D03*
X14299001D02*
D03*
X14348997D02*
D03*
X14399001D02*
D03*
X14448997D02*
D03*
X14499001D02*
D03*
X14548997D02*
D03*
X14599001D02*
D03*
X14648997D02*
D03*
X14699001D02*
D03*
X14748997D02*
D03*
X14799001D02*
D03*
X14849004D02*
D03*
X14899001D02*
D03*
X14949002D02*
D03*
X14999001D02*
D03*
X15049002D02*
D03*
X15099001D02*
D03*
Y7460656D02*
D03*
X15049002D02*
D03*
X14999001D02*
D03*
X14949002D02*
D03*
X14899001D02*
D03*
X14849004D02*
D03*
X14799001D02*
D03*
X14748997D02*
D03*
X14699001D02*
D03*
X14648997D02*
D03*
X14599001D02*
D03*
X14548997D02*
D03*
X14499001D02*
D03*
X14448997D02*
D03*
X14399001D02*
D03*
X14348997D02*
D03*
X14299001D02*
D03*
X14248999D02*
D03*
X14199001D02*
D03*
X14148999D02*
D03*
X14099002D02*
D03*
X14048999D02*
D03*
X13999002D02*
D03*
X13948999D02*
D03*
X13899002D02*
D03*
X13848999D02*
D03*
X13799002D02*
D03*
X13749001D02*
D03*
X13699002D02*
D03*
X13649001D02*
D03*
X13599004D02*
D03*
X13549001D02*
D03*
X13498997D02*
D03*
X13449001D02*
D03*
X13398997D02*
D03*
X13349001D02*
D03*
D24*
X15291547Y9403202D02*
D03*
Y9353205D02*
D03*
Y9303202D02*
D03*
Y9253205D02*
D03*
Y9203202D02*
D03*
Y9153205D02*
D03*
Y9103203D02*
D03*
Y9053200D02*
D03*
Y9003203D02*
D03*
Y8953200D02*
D03*
Y8903203D02*
D03*
Y8853200D02*
D03*
Y8803203D02*
D03*
Y8753201D02*
D03*
Y8703203D02*
D03*
Y8653201D02*
D03*
Y8603204D02*
D03*
Y8553201D02*
D03*
Y8503204D02*
D03*
Y8453201D02*
D03*
Y8403204D02*
D03*
Y8353201D02*
D03*
Y8303204D02*
D03*
Y8253202D02*
D03*
Y8203204D02*
D03*
Y8153202D02*
D03*
Y8103205D02*
D03*
Y8053202D02*
D03*
Y8003205D02*
D03*
Y7953202D02*
D03*
Y7903205D02*
D03*
Y7853202D02*
D03*
Y7803200D02*
D03*
Y7753203D02*
D03*
Y7703200D02*
D03*
Y7653203D02*
D03*
X13156453D02*
D03*
Y7703200D02*
D03*
Y7753203D02*
D03*
Y7803200D02*
D03*
Y7853202D02*
D03*
Y7903205D02*
D03*
Y7953202D02*
D03*
Y8003205D02*
D03*
Y8053202D02*
D03*
Y8103205D02*
D03*
Y8153202D02*
D03*
Y8203204D02*
D03*
Y8253202D02*
D03*
Y8303204D02*
D03*
Y8353201D02*
D03*
Y8403204D02*
D03*
Y8453201D02*
D03*
Y8503204D02*
D03*
Y8553201D02*
D03*
Y8603204D02*
D03*
Y8653201D02*
D03*
Y8703203D02*
D03*
Y8753201D02*
D03*
Y8803203D02*
D03*
Y8853200D02*
D03*
Y8903203D02*
D03*
Y8953200D02*
D03*
Y9003203D02*
D03*
Y9053200D02*
D03*
Y9103203D02*
D03*
Y9153205D02*
D03*
Y9203202D02*
D03*
Y9253205D02*
D03*
Y9303202D02*
D03*
Y9353205D02*
D03*
D25*
Y9403202D02*
D03*
D32*
X12696337Y7283602D02*
D03*
X12881464D02*
D03*
D56*
X17049802Y7838999D02*
D03*
Y8417001D02*
D03*
D57*
X17260500Y9363304D02*
D03*
Y10023302D02*
D03*
D58*
X15608299Y7512101D02*
D03*
D59*
Y7712100D02*
D03*
Y7912100D02*
D03*
Y8112100D02*
D03*
X12741300Y6896100D02*
D03*
X12941299D02*
D03*
X13141299D02*
D03*
X16786301Y6578600D02*
D03*
X16986301D02*
D03*
X17186301D02*
D03*
X17386301D02*
D03*
X17586301D02*
D03*
X16252800D02*
D03*
D60*
X12541301Y6896100D02*
D03*
X16586302Y6578600D02*
D03*
X16052800D02*
D03*
D61*
X15697200Y10423947D02*
D03*
X11861800D02*
D03*
X13779500D02*
D03*
D62*
X15570200Y6773098D02*
D03*
D63*
Y7023100D02*
D03*
D64*
X16598900Y8610600D02*
D03*
X16414809Y9028987D02*
D03*
X15963901Y9105900D02*
D03*
X16256000Y9245600D02*
D03*
X13335001Y9156700D02*
D03*
X12509500Y9779000D02*
D03*
X12052300Y7378700D02*
D03*
X11709400Y7251700D02*
D03*
X11861800Y10134600D02*
D03*
X14097000Y9855200D02*
D03*
X12389933Y9113355D02*
D03*
X15773399Y9398000D02*
D03*
X13995399Y6985000D02*
D03*
X17068800Y7086600D02*
D03*
X12674600Y7683500D02*
D03*
X12928600Y10337800D02*
D03*
X14058900Y9448800D02*
D03*
X14554201D02*
D03*
X15760699Y9321800D02*
D03*
X15100301Y9347200D02*
D03*
X15138400Y8699500D02*
D03*
X15443201Y8153400D02*
D03*
X14554201Y7607300D02*
D03*
X14046201D02*
D03*
X13411200D02*
D03*
X13296899Y7899400D02*
D03*
Y8648700D02*
D03*
X14350999Y7315200D02*
D03*
X14770100D02*
D03*
X15239999Y7302500D02*
D03*
X15786099Y8547100D02*
D03*
Y8712200D02*
D03*
X12065000Y10248900D02*
D03*
X15367000Y7543800D02*
D03*
X15417799Y7607300D02*
D03*
X13601700Y9448800D02*
D03*
X13512801D02*
D03*
X16357600Y7581900D02*
D03*
X13309599Y8775700D02*
D03*
Y8851900D02*
D03*
X12357100Y6604000D02*
D03*
X13792200Y9448800D02*
D03*
X13690601D02*
D03*
X13462000Y8216900D02*
D03*
X13906500Y9448800D02*
D03*
X14884399D02*
D03*
X15163800Y9664700D02*
D03*
X15151100Y9245600D02*
D03*
X17386301Y6438900D02*
D03*
X14706599Y9956800D02*
D03*
X14414500D02*
D03*
X15798801Y10388600D02*
D03*
X15595599D02*
D03*
X15697200Y10121900D02*
D03*
X11964346Y10385874D02*
D03*
X11760200Y10388600D02*
D03*
X13881100Y10414000D02*
D03*
X13677901D02*
D03*
X13779500Y10299700D02*
D03*
X13639799Y10121900D02*
D03*
X13322301D02*
D03*
X13144501Y10337800D02*
D03*
X13639799Y7315200D02*
D03*
X15062199Y10198100D02*
D03*
X14338300Y10350500D02*
D03*
X14478000Y7315200D02*
D03*
X14465300Y10248900D02*
D03*
X12128500Y9131300D02*
D03*
X12928600Y9829800D02*
D03*
X15570200Y6642100D02*
D03*
X15176500Y10452100D02*
D03*
X13512801D02*
D03*
X12179300D02*
D03*
X16065500Y8737600D02*
D03*
X16256000Y9512300D02*
D03*
X12001500Y9626600D02*
D03*
X12661900Y8610600D02*
D03*
X12585700Y8788400D02*
D03*
X12649200Y8966200D02*
D03*
X11811000Y8559800D02*
D03*
Y8356600D02*
D03*
X12306300Y8458200D02*
D03*
X12522200Y8445500D02*
D03*
X12674600Y8128000D02*
D03*
Y7886700D02*
D03*
X11772900Y7645400D02*
D03*
X12560300D02*
D03*
X12369800Y7340600D02*
D03*
X15074899Y6972300D02*
D03*
X14871700D02*
D03*
X14668500D02*
D03*
X14478000D02*
D03*
X14262100Y7099300D02*
D03*
X13817599D02*
D03*
X13601700Y6972300D02*
D03*
X13411200D02*
D03*
X12103100Y6934200D02*
D03*
X11747500Y7099300D02*
D03*
Y7023100D02*
D03*
X13804900Y6692900D02*
D03*
X13004800Y6705600D02*
D03*
X12509500Y7023100D02*
D03*
X14516100Y6692900D02*
D03*
X12192000Y7137400D02*
D03*
Y7213600D02*
D03*
X11925300Y6477000D02*
D03*
X11988800Y6527800D02*
D03*
X11836400Y6477000D02*
D03*
X12573000Y6591300D02*
D03*
X12052300Y6680200D02*
D03*
X15976601Y7264400D02*
D03*
Y7454900D02*
D03*
Y7620000D02*
D03*
X16854369Y7735768D02*
D03*
X16840199Y8509000D02*
D03*
X16243300Y9359900D02*
D03*
X16814799Y8128000D02*
D03*
Y8204200D02*
D03*
X15582899Y9105900D02*
D03*
X15494000D02*
D03*
X15989301Y9690100D02*
D03*
D65*
X16154401Y6934200D02*
D03*
D71*
X15743050Y10423950D02*
G03*
X15743050Y10423950I-45850J0D01*
G01*
X11907650D02*
G03*
X11907650Y10423950I-45850J0D01*
G01*
X13825349D02*
G03*
X13825349Y10423950I-45850J0D01*
G01*
D72*
X17627600Y8871400D02*
D03*
Y8661400D02*
D03*
X15913100Y8982300D02*
D03*
Y8772300D02*
D03*
X13817599Y7000804D02*
D03*
Y7210801D02*
D03*
X14262100D02*
D03*
Y7000804D02*
D03*
X12395200Y10232796D02*
D03*
Y10442793D02*
D03*
X15392400Y10455499D02*
D03*
Y10245496D02*
D03*
X14097000Y10245500D02*
D03*
Y10455497D02*
D03*
X13093700Y10232796D02*
D03*
Y10442799D02*
D03*
X12623800D02*
D03*
Y10232796D02*
D03*
X12217400Y6835999D02*
D03*
Y6625996D02*
D03*
X14592300Y10245501D02*
D03*
Y10455504D02*
D03*
X14338300Y10245496D02*
D03*
Y10455499D02*
D03*
X12852400Y10232796D02*
D03*
Y10442793D02*
D03*
X13322301Y10442799D02*
D03*
Y10232796D02*
D03*
D73*
X16942297Y7792999D02*
D03*
Y7872999D02*
D03*
Y8003002D02*
D03*
Y8103001D02*
D03*
Y8152999D02*
D03*
Y8252998D02*
D03*
Y8383001D02*
D03*
Y8463001D02*
D03*
Y8432998D02*
D03*
Y8352998D02*
D03*
Y8303001D02*
D03*
Y8203001D02*
D03*
Y8052999D02*
D03*
Y7952999D02*
D03*
Y7903002D02*
D03*
Y7823002D02*
D03*
D74*
X17392802Y7616998D02*
D03*
Y8639002D02*
D03*
X16999799Y7616998D02*
D03*
Y8639002D02*
D03*
D75*
X16118500Y9913300D02*
D03*
Y9803303D02*
D03*
Y9693300D02*
D03*
Y9583303D02*
D03*
Y9473301D02*
D03*
Y9363304D02*
D03*
Y9253301D02*
D03*
Y9143304D02*
D03*
Y9033302D02*
D03*
D76*
X16318500Y8895304D02*
D03*
X17218497D02*
D03*
Y10510302D02*
D03*
X16318500D02*
D03*
D77*
X13315701Y6591300D02*
D03*
X13505704D02*
D03*
X14122400Y6578600D02*
D03*
X14312402D02*
D03*
X14935201D02*
D03*
X15125201D02*
D03*
X16491199Y8102600D02*
D03*
X16681201D02*
D03*
D78*
X12909702Y8566302D02*
D03*
X12769703D02*
D03*
X11957202Y7264400D02*
D03*
X11817203D02*
D03*
X11995302Y7086600D02*
D03*
X11855298D02*
D03*
X13036398Y9836302D02*
D03*
X13176398D02*
D03*
X14268303D02*
D03*
X14408302D02*
D03*
X14560403D02*
D03*
X14700401D02*
D03*
X15678302Y8559800D02*
D03*
X15538303D02*
D03*
X15652902Y9328302D02*
D03*
X15512903D02*
D03*
X15652902Y9506102D02*
D03*
X15512903D02*
D03*
X15678302Y8756802D02*
D03*
X15538303D02*
D03*
X12922401Y8134502D02*
D03*
X12782403D02*
D03*
X12922401Y7931302D02*
D03*
X12782403D02*
D03*
X11918798Y8350397D02*
D03*
X12058797D02*
D03*
X12769698Y7715402D02*
D03*
X12909697D02*
D03*
X12769698Y7512202D02*
D03*
X12909697D02*
D03*
X12058797Y8553602D02*
D03*
X11918798D02*
D03*
X12769703Y8972702D02*
D03*
X12909702D02*
D03*
X16224402Y7454900D02*
D03*
X16084402D02*
D03*
X16084398Y7632700D02*
D03*
X16224402D02*
D03*
Y7277100D02*
D03*
X16084398D02*
D03*
D79*
X12192000Y7060499D02*
D03*
Y7290501D02*
D03*
D80*
X15600600Y10213650D02*
D03*
X15793800D02*
D03*
X11958401D02*
D03*
X11765199D02*
D03*
X13876102D02*
D03*
X13682904D02*
D03*
D81*
X15595702Y10487350D02*
D03*
X15798698D02*
D03*
X11963298D02*
D03*
X11760297D02*
D03*
X13881003D02*
D03*
X13678001D02*
D03*
D82*
X15697200Y10213650D02*
D03*
X11861800D02*
D03*
X13779500D02*
D03*
D83*
X12179300Y10204303D02*
D03*
Y10344302D02*
D03*
X15074899Y7213905D02*
D03*
Y7073905D02*
D03*
X14668500Y7213900D02*
D03*
Y7073900D02*
D03*
X14871700D02*
D03*
Y7213900D02*
D03*
X14478000Y7073900D02*
D03*
Y7213900D02*
D03*
X14033501Y7226605D02*
D03*
Y7086605D02*
D03*
X13411200Y7213905D02*
D03*
Y7073905D02*
D03*
X13601700Y7213905D02*
D03*
Y7073900D02*
D03*
X12484100Y7340900D02*
D03*
Y7200900D02*
D03*
X15176500Y10344302D02*
D03*
Y10204298D02*
D03*
X13512801Y10344302D02*
D03*
Y10204303D02*
D03*
D84*
X17399001Y7086600D02*
D03*
D85*
X16688998Y6858102D02*
D03*
Y7315098D02*
D03*
D86*
X13916000Y6578600D02*
D03*
X13706003D02*
D03*
X13106598Y6591300D02*
D03*
X12896600D02*
D03*
X14728799Y6578600D02*
D03*
X14518803D02*
D03*
X13788802Y9861702D02*
D03*
X13998804D02*
D03*
X13357001D02*
D03*
X13566998D02*
D03*
X12906599Y8794902D02*
D03*
X12696596D02*
D03*
X12468001Y6591300D02*
D03*
X12678004D02*
D03*
X16703899Y7848600D02*
D03*
X16493901D02*
D03*
X16268700Y8610600D02*
D03*
X16058704D02*
D03*
Y7861300D02*
D03*
X16268700D02*
D03*
X16058704Y8115300D02*
D03*
X16268700D02*
D03*
X16058704Y8356600D02*
D03*
X16268700D02*
D03*
X16493901Y8610600D02*
D03*
X16703905D02*
D03*
Y8356600D02*
D03*
X16493901D02*
D03*
D87*
X11769100Y7991201D02*
D03*
X12564100D02*
D03*
X11769100Y7541199D02*
D03*
X12564100D02*
D03*
D88*
X12528103Y8359506D02*
D03*
X12313102D02*
D03*
Y8544504D02*
D03*
X12528103D02*
D03*
D89*
X12391202Y9224300D02*
D03*
X12141200D02*
D03*
X11891198D02*
D03*
X12391202Y8784300D02*
D03*
X12141200D02*
D03*
X11891198D02*
D03*
D90*
X11874500Y6756400D02*
D03*
D91*
X11974500Y6606398D02*
D03*
X11924502D02*
D03*
X11874500D02*
D03*
X11824503D02*
D03*
X11774500D02*
D03*
Y6906402D02*
D03*
X11824503D02*
D03*
X11874500D02*
D03*
X11924502D02*
D03*
X11974500D02*
D03*
D92*
X16484599Y7569200D02*
D03*
Y6796898D02*
D03*
D93*
Y7314199D02*
D03*
Y7051899D02*
D03*
D94*
X12371502Y9821601D02*
D03*
Y9756602D02*
D03*
Y9691599D02*
D03*
Y9626600D02*
D03*
Y9561601D02*
D03*
Y9496598D02*
D03*
Y9431599D02*
D03*
X11783898D02*
D03*
Y9496598D02*
D03*
Y9561601D02*
D03*
Y9626600D02*
D03*
Y9691599D02*
D03*
Y9756602D02*
D03*
Y9821601D02*
D03*
%TF.MD5,3ec24e7bb965312a929e8d97919557cf*%
M02*
