%TF.GenerationSoftware,Altium Limited,Altium Designer,21.9.2 (33)*%
G04 Layer_Color=16711935*
%FSLAX45Y45*%
%MOMM*%
%TF.SameCoordinates,8C9FB855-A7A5-4AEE-82B0-D85B10D48A85*%
%TF.FilePolarity,Negative*%
%TF.FileFunction,Soldermask,Bot*%
%TF.Part,Single*%
G01*
G75*
%TA.AperFunction,SMDPad,CuDef*%
%ADD54R,3.15000X3.75000*%
%ADD55R,3.15000X2.75000*%
%TA.AperFunction,ComponentPad*%
%ADD56C,0.47500*%
%ADD57C,0.62500*%
%ADD58R,1.50000X1.50000*%
%ADD59C,1.50000*%
%ADD60R,1.50000X1.50000*%
%ADD61C,0.15000*%
%ADD62C,1.42500*%
%ADD63R,1.42500X1.42500*%
%TA.AperFunction,ViaPad*%
%ADD64C,0.75000*%
%ADD65C,3.75000*%
D54*
X12915900Y7975600D02*
D03*
D55*
X15055901D02*
D03*
D56*
X17049802Y7838999D02*
D03*
Y8417001D02*
D03*
D57*
X17260500Y9363304D02*
D03*
Y10023302D02*
D03*
D58*
X15608299Y7512101D02*
D03*
D59*
Y7712100D02*
D03*
Y7912100D02*
D03*
Y8112100D02*
D03*
X12741300Y6896100D02*
D03*
X12941299D02*
D03*
X13141299D02*
D03*
X16786301Y6578600D02*
D03*
X16986301D02*
D03*
X17186301D02*
D03*
X17386301D02*
D03*
X17586301D02*
D03*
X16252800D02*
D03*
D60*
X12541301Y6896100D02*
D03*
X16586302Y6578600D02*
D03*
X16052800D02*
D03*
D61*
X15697200Y10423947D02*
D03*
X11861800D02*
D03*
X13779500D02*
D03*
D62*
X15570200Y6773098D02*
D03*
D63*
Y7023100D02*
D03*
D64*
X16598900Y8610600D02*
D03*
X16414809Y9028987D02*
D03*
X15963901Y9105900D02*
D03*
X16256000Y9245600D02*
D03*
X13335001Y9156700D02*
D03*
X12509500Y9779000D02*
D03*
X12052300Y7378700D02*
D03*
X11709400Y7251700D02*
D03*
X11861800Y10134600D02*
D03*
X14097000Y9855200D02*
D03*
X12389933Y9113355D02*
D03*
X15773399Y9398000D02*
D03*
X13995399Y6985000D02*
D03*
X17068800Y7086600D02*
D03*
X12674600Y7683500D02*
D03*
X12928600Y10337800D02*
D03*
X14058900Y9448800D02*
D03*
X14554201D02*
D03*
X15760699Y9321800D02*
D03*
X15100301Y9347200D02*
D03*
X15138400Y8699500D02*
D03*
X15443201Y8153400D02*
D03*
X14554201Y7607300D02*
D03*
X14046201D02*
D03*
X13411200D02*
D03*
X13296899Y7899400D02*
D03*
Y8648700D02*
D03*
X14350999Y7315200D02*
D03*
X14770100D02*
D03*
X15239999Y7302500D02*
D03*
X15786099Y8547100D02*
D03*
Y8712200D02*
D03*
X12065000Y10248900D02*
D03*
X15367000Y7543800D02*
D03*
X15417799Y7607300D02*
D03*
X13601700Y9448800D02*
D03*
X13512801D02*
D03*
X16357600Y7581900D02*
D03*
X13309599Y8775700D02*
D03*
Y8851900D02*
D03*
X12357100Y6604000D02*
D03*
X13792200Y9448800D02*
D03*
X13690601D02*
D03*
X13462000Y8216900D02*
D03*
X13906500Y9448800D02*
D03*
X14884399D02*
D03*
X15163800Y9664700D02*
D03*
X15151100Y9245600D02*
D03*
X17386301Y6438900D02*
D03*
X14706599Y9956800D02*
D03*
X14414500D02*
D03*
X15798801Y10388600D02*
D03*
X15595599D02*
D03*
X15697200Y10121900D02*
D03*
X11964346Y10385874D02*
D03*
X11760200Y10388600D02*
D03*
X13881100Y10414000D02*
D03*
X13677901D02*
D03*
X13779500Y10299700D02*
D03*
X13639799Y10121900D02*
D03*
X13322301D02*
D03*
X13144501Y10337800D02*
D03*
X13639799Y7315200D02*
D03*
X15062199Y10198100D02*
D03*
X14338300Y10350500D02*
D03*
X14478000Y7315200D02*
D03*
X14465300Y10248900D02*
D03*
X12128500Y9131300D02*
D03*
X12928600Y9829800D02*
D03*
X15570200Y6642100D02*
D03*
X15176500Y10452100D02*
D03*
X13512801D02*
D03*
X12179300D02*
D03*
X16065500Y8737600D02*
D03*
X16256000Y9512300D02*
D03*
X12001500Y9626600D02*
D03*
X12661900Y8610600D02*
D03*
X12585700Y8788400D02*
D03*
X12649200Y8966200D02*
D03*
X11811000Y8559800D02*
D03*
Y8356600D02*
D03*
X12306300Y8458200D02*
D03*
X12522200Y8445500D02*
D03*
X12674600Y8128000D02*
D03*
Y7886700D02*
D03*
X11772900Y7645400D02*
D03*
X12560300D02*
D03*
X12369800Y7340600D02*
D03*
X15074899Y6972300D02*
D03*
X14871700D02*
D03*
X14668500D02*
D03*
X14478000D02*
D03*
X14262100Y7099300D02*
D03*
X13817599D02*
D03*
X13601700Y6972300D02*
D03*
X13411200D02*
D03*
X12103100Y6934200D02*
D03*
X11747500Y7099300D02*
D03*
Y7023100D02*
D03*
X13804900Y6692900D02*
D03*
X13004800Y6705600D02*
D03*
X12509500Y7023100D02*
D03*
X14516100Y6692900D02*
D03*
X12192000Y7137400D02*
D03*
Y7213600D02*
D03*
X11925300Y6477000D02*
D03*
X11988800Y6527800D02*
D03*
X11836400Y6477000D02*
D03*
X12573000Y6591300D02*
D03*
X12052300Y6680200D02*
D03*
X15976601Y7264400D02*
D03*
Y7454900D02*
D03*
Y7620000D02*
D03*
X16854369Y7735768D02*
D03*
X16840199Y8509000D02*
D03*
X16243300Y9359900D02*
D03*
X16814799Y8128000D02*
D03*
Y8204200D02*
D03*
X15582899Y9105900D02*
D03*
X15494000D02*
D03*
X15989301Y9690100D02*
D03*
D65*
X16154401Y6934200D02*
D03*
%TF.MD5,fd1fa9bd3be8758cad7987c1f0b259f0*%
M02*
